<svg xmlns="http://www.w3.org/2000/svg" width="829.215" height="160.347" viewBox="0 0 829.215 160.347">
  <g id="Group_11923" data-name="Group 11923" transform="translate(-587.839 -3296.232)">
    <g id="Group_5786" data-name="Group 5786" transform="translate(1070.74 3415.181) rotate(-30)" opacity="0.55">
      <path id="Path_14296" data-name="Path 14296" d="M5.362,0,6.878,3.185,1.508,5.733,0,2.546,5.362,0Z" transform="translate(330.827 77.846)" fill="#ff496a" fill-rule="evenodd"/>
      <path id="Path_14297" data-name="Path 14297" d="M5.362,0,6.878,3.185,1.516,5.739,0,2.554,5.362,0Z" transform="translate(340.444 73.266)" fill="#ff496a" fill-rule="evenodd"/>
      <path id="Path_14298" data-name="Path 14298" d="M5.37,0,6.877,3.191,1.512,5.731,0,2.543,5.37,0Z" transform="translate(350.032 68.712)" fill="#ff496a" fill-rule="evenodd"/>
      <path id="Path_14299" data-name="Path 14299" d="M5.42,0,6.865,3.22,1.42,5.635,0,2.4,5.42,0Z" transform="translate(301.783 91.319)" fill="#ff496a" fill-rule="evenodd"/>
      <path id="Path_14300" data-name="Path 14300" d="M5.395,0,6.874,3.2,1.461,5.68,0,2.467,5.395,0Z" transform="translate(311.492 86.916)" fill="#ff496a" fill-rule="evenodd"/>
      <path id="Path_14301" data-name="Path 14301" d="M5.374,0l1.5,3.193L1.491,5.715,0,2.517,5.374,0Z" transform="translate(321.126 82.433)" fill="#ff496a" fill-rule="evenodd"/>
      <path id="Path_14302" data-name="Path 14302" d="M5.54,0,6.807,3.295C4.955,4.017,3.083,4.7,1.219,5.4L0,2.09C1.852,1.394,3.7.718,5.54,0Z" transform="translate(272.217 103.645)" fill="#ff496a" fill-rule="evenodd"/>
      <path id="Path_14303" data-name="Path 14303" d="M5.5,0,6.836,3.266Q4.078,4.4,1.3,5.492L0,2.211Q2.763,1.127,5.5,0Z" transform="translate(282.135 99.728)" fill="#ff496a" fill-rule="evenodd"/>
      <path id="Path_14304" data-name="Path 14304" d="M5.458,0,6.853,3.241C5.023,4.021,3.2,4.805,1.365,5.569L0,2.315C1.822,1.556,3.64.775,5.458,0Z" transform="translate(291.944 95.629)" fill="#ff496a" fill-rule="evenodd"/>
      <path id="Path_14305" data-name="Path 14305" d="M5.7,0l.968,3.393C4.746,3.926,2.831,4.475.9,4.971L0,1.558C1.91,1.069,3.8.526,5.7,0Z" transform="translate(241.854 113.828)" fill="#ff496a" fill-rule="evenodd"/>
      <path id="Path_14306" data-name="Path 14306" d="M5.646,0,6.727,3.359c-1.893.62-3.8,1.2-5.709,1.784L0,1.764C1.885,1.185,3.774.614,5.646,0Z" transform="translate(252.062 110.742)" fill="#ff496a" fill-rule="evenodd"/>
      <path id="Path_14307" data-name="Path 14307" d="M5.6,0,6.772,3.327c-1.88.654-3.757,1.323-5.646,1.948L0,1.931C1.872,1.312,3.732.649,5.6,0Z" transform="translate(262.135 107.354)" fill="#ff496a" fill-rule="evenodd"/>
      <path id="Path_14308" data-name="Path 14308" d="M5.847,0l.528,3.488L3.4,3.923c-.989.138-1.985.253-2.978.38L0,.8C.972.674,1.951.564,2.928.427L5.847,0Z" transform="translate(210.646 120.685)" fill="#ff496a" fill-rule="evenodd"/>
      <path id="Path_14309" data-name="Path 14309" d="M5.8,0,6.5,3.458c-.976.211-1.96.379-2.944.566S1.591,4.4.6,4.56L0,1.083C.971.929,1.939.731,2.907.556S4.845.205,5.8,0Z" transform="translate(221.117 118.85)" fill="#ff496a" fill-rule="evenodd"/>
      <path id="Path_14310" data-name="Path 14310" d="M5.755,0l.837,3.427-2.911.7L.754,4.782,0,1.336,2.882.691,5.755,0Z" transform="translate(231.48 116.557)" fill="#ff496a" fill-rule="evenodd"/>
      <path id="Path_14311" data-name="Path 14311" d="M6.065.177l-.05,3.528C4.009,3.7,2,3.6,0,3.525L.172,0C2.136.069,4.1.174,6.065.177Z" transform="translate(178.758 122.753)" fill="#ff496a" fill-rule="evenodd"/>
      <path id="Path_14312" data-name="Path 14312" d="M5.9,0l.155,3.525c-2,.068-4,.159-6.007.162L0,.159C1.968.157,3.933.069,5.9,0Z" transform="translate(189.498 122.776)" fill="#ff496a" fill-rule="evenodd"/>
      <path id="Path_14313" data-name="Path 14313" d="M5.877,0l.352,3.512c-1,.11-1.993.2-2.99.273l-3,.238L0,.5,2.941.269C3.921.194,4.905.108,5.877,0Z" transform="translate(200.035 122.013)" fill="#ff496a" fill-rule="evenodd"/>
      <path id="Path_14314" data-name="Path 14314" d="M6.593,1.295,5.876,4.748c-.984-.187-1.96-.415-2.941-.642L0,3.426.847,0,3.716.666c.954.221,1.914.446,2.877.629Z" transform="translate(146.707 118.206)" fill="#ff496a" fill-rule="evenodd"/>
      <path id="Path_14315" data-name="Path 14315" d="M6.438.926,5.944,4.42,2.966,3.986,0,3.475.62,0l2.9.5L6.438.926Z" transform="translate(157.275 120.385)" fill="#ff496a" fill-rule="evenodd"/>
      <path id="Path_14316" data-name="Path 14316" d="M6.258.568,5.99,4.084l-3-.269-1.5-.135L0,3.507.39,0,1.856.171,3.322.3,6.258.568Z" transform="translate(167.927 121.895)" fill="#ff496a" fill-rule="evenodd"/>
      <path id="Path_14317" data-name="Path 14317" d="M6.874,2.361,5.513,5.616C3.653,4.867,1.831,4.03,0,3.206L1.471,0c1.792.805,3.581,1.627,5.4,2.361Z" transform="translate(116.156 107.72)" fill="#ff496a" fill-rule="evenodd"/>
      <path id="Path_14318" data-name="Path 14318" d="M6.806,2.031,5.65,5.365l-2.84-1L0,3.292,1.273,0,4.025,1.052l2.781.98Z" transform="translate(126.095 111.827)" fill="#ff496a" fill-rule="evenodd"/>
      <path id="Path_14319" data-name="Path 14319" d="M6.71,1.684l-.938,3.4L2.878,4.246,1.436,3.824,0,3.363,1.064,0l1.4.449L3.879.863l2.831.821Z" transform="translate(136.244 115.319)" fill="#ff496a" fill-rule="evenodd"/>
      <path id="Path_14320" data-name="Path 14320" d="M6.915,3.228,5.022,6.209c-.855-.523-1.684-1.075-2.517-1.628L0,2.926,1.973,0,4.432,1.627c.821.544,1.642,1.088,2.484,1.6Z" transform="translate(88.002 92.114)" fill="#ff496a" fill-rule="evenodd"/>
      <path id="Path_14321" data-name="Path 14321" d="M6.923,2.962,5.2,6.038c-.884-.476-1.746-.987-2.61-1.495L0,3.023,1.822,0,4.364,1.5c.851.5,1.692,1,2.559,1.467Z" transform="translate(97.074 97.81)" fill="#ff496a" fill-rule="evenodd"/>
      <path id="Path_14322" data-name="Path 14322" d="M6.907,2.676,5.353,5.843,4,5.189,2.668,4.5,0,3.118,1.65,0,4.272,1.355l1.307.679,1.328.641Z" transform="translate(106.423 103.004)" fill="#ff496a" fill-rule="evenodd"/>
      <path id="Path_14323" data-name="Path 14323" d="M6.806,3.869,4.528,6.561C3.007,5.267,1.479,3.982,0,2.64L2.337,0C3.8,1.323,5.307,2.59,6.806,3.869Z" transform="translate(62.544 72.57)" fill="#ff496a" fill-rule="evenodd"/>
      <path id="Path_14324" data-name="Path 14324" d="M6.852,3.68,4.691,6.466C3.9,5.85,3.1,5.255,2.324,4.622L0,2.734,2.232,0,4.523,1.861c.763.626,1.554,1.212,2.329,1.819Z" transform="translate(70.723 79.437)" fill="#ff496a" fill-rule="evenodd"/>
      <path id="Path_14325" data-name="Path 14325" d="M6.89,3.468,4.855,6.351,3.624,5.493,2.413,4.6,0,2.829,2.111,0,4.486,1.749l1.194.874,1.211.845Z" transform="translate(79.167 85.938)" fill="#ff496a" fill-rule="evenodd"/>
      <path id="Path_14326" data-name="Path 14326" d="M6.634,4.323,4.079,6.753C2.714,5.3,1.323,3.871,0,2.386L2.6,0C3.912,1.471,5.285,2.887,6.634,4.323Z" transform="translate(39.611 50.201)" fill="#ff496a" fill-rule="evenodd"/>
      <path id="Path_14327" data-name="Path 14327" d="M6.693,4.194,4.218,6.707C3.5,6.018,2.8,5.309,2.1,4.6L0,2.467,2.521,0,4.6,2.107c.691.7,1.383,1.4,2.094,2.087Z" transform="translate(46.982 57.905)" fill="#ff496a" fill-rule="evenodd"/>
      <path id="Path_14328" data-name="Path 14328" d="M6.752,4.037l-2.383,2.6C2.915,5.276,1.445,3.925,0,2.552L2.434,0C3.866,1.357,5.316,2.69,6.752,4.037Z" transform="translate(54.581 65.347)" fill="#ff496a" fill-rule="evenodd"/>
      <path id="Path_14329" data-name="Path 14329" d="M6.446,4.653,3.69,6.86C2.445,5.306,1.231,3.73,0,2.168L2.785,0C4,1.55,5.215,3.115,6.446,4.653Z" transform="translate(18.878 25.821)" fill="#ff496a" fill-rule="evenodd"/>
      <path id="Path_14330" data-name="Path 14330" d="M6.513,4.55,3.82,6.826C2.538,5.3,1.243,3.791,0,2.237L2.731,0C3.962,1.543,5.245,3.039,6.513,4.55Z" transform="translate(25.559 34.121)" fill="#ff496a" fill-rule="evenodd"/>
      <path id="Path_14331" data-name="Path 14331" d="M6.572,4.449,3.937,6.8,0,2.308,2.672,0l3.9,4.449Z" transform="translate(32.428 42.222)" fill="#ff496a" fill-rule="evenodd"/>
      <path id="Path_14332" data-name="Path 14332" d="M6.267,4.889,3.368,6.9,0,1.981,2.92,0,6.267,4.889Z" transform="translate(0 0)" fill="#ff496a" fill-rule="evenodd"/>
      <path id="Path_14333" data-name="Path 14333" d="M6.329,4.813,3.476,6.888c-.586-.805-1.181-1.6-1.755-2.413L0,2.041,2.878,0,4.587,2.418c.569.807,1.164,1.6,1.742,2.395Z" transform="translate(6.102 8.728)" fill="#ff496a" fill-rule="evenodd"/>
      <path id="Path_14334" data-name="Path 14334" d="M6.4,4.731,3.59,6.868C2.4,5.28,1.181,3.7,0,2.1L2.836,0C4.008,1.59,5.211,3.153,6.4,4.731Z" transform="translate(12.352 17.306)" fill="#ff496a" fill-rule="evenodd"/>
    </g>
    <g id="Group_5787" data-name="Group 5787" transform="matrix(0.819, -0.574, 0.574, 0.819, 973.699, 3378.867)">
      <path id="Path_14207" data-name="Path 14207" d="M10.061,21.408,0,6.364,3.64,0S11.263,2.3,11.381,3s-.583,9.577-.709,11.131-.611,7.281-.611,7.281Z" transform="translate(39.5 54.443)" fill="#aa2e5b"/>
      <path id="Path_14208" data-name="Path 14208" d="M.525.272a1.339,1.339,0,0,1,1.457-.1L78.968,43.1a1.332,1.332,0,0,1-.281,2.446L62.946,50.05a4.007,4.007,0,0,0-2.656,2.469L51.88,75.5a1.332,1.332,0,0,1-1.26.875,1.353,1.353,0,0,1-1.248-.888L44.031,60.427a1.3,1.3,0,0,0-.879-.836,1.321,1.321,0,0,0-1.194.23L20.336,76.682a1.338,1.338,0,0,1-1.026.266l-.231-.058a1.341,1.341,0,0,1-.859-.942L.038,1.649A1.331,1.331,0,0,1,.525.272Z" transform="translate(0 0)" fill="#ff496a"/>
      <path id="Path_14209" data-name="Path 14209" d="M.629,0,61.057,50.75a4,4,0,0,0-1.3,1.751L51.343,75.485a1.332,1.332,0,0,1-1.26.876,1.352,1.352,0,0,1-1.248-.888L43.494,60.409l-.176-.273v-.059L0,.246A1.311,1.311,0,0,1,.629,0Z" transform="translate(0.538 0.019)" fill="#cb3d66"/>
    </g>
    <g id="Group_5801" data-name="Group 5801" opacity="0.55">
      <path id="Path_14296-2" data-name="Path 14296" d="M5.362,5.734,6.878,2.549,1.508,0,0,3.188,5.362,5.734Z" transform="matrix(0.996, 0.087, -0.087, 0.996, 938.896, 3358.005)" fill="#f24669" fill-rule="evenodd"/>
      <path id="Path_14297-2" data-name="Path 14297" d="M5.362,5.739,6.878,2.554,1.516,0,0,3.184,5.362,5.739Z" transform="matrix(0.996, 0.087, -0.087, 0.996, 948.078, 3363.4)" fill="#f24669" fill-rule="evenodd"/>
      <path id="Path_14298-2" data-name="Path 14298" d="M5.37,5.731,6.877,2.54,1.512,0,0,3.188,5.37,5.731Z" transform="matrix(0.996, 0.087, -0.087, 0.996, 957.232, 3368.78)" fill="#f24669" fill-rule="evenodd"/>
      <path id="Path_14299-2" data-name="Path 14299" d="M5.42,5.635l1.445-3.22L1.42,0,0,3.231l5.42,2.4Z" transform="matrix(0.996, 0.087, -0.087, 0.996, 911.129, 3342.15)" fill="#f24669" fill-rule="evenodd"/>
      <path id="Path_14300-2" data-name="Path 14300" d="M5.395,5.68l1.479-3.2L1.461,0,0,3.213,5.395,5.68Z" transform="matrix(0.996, 0.087, -0.087, 0.996, 920.421, 3347.338)" fill="#f24669" fill-rule="evenodd"/>
      <path id="Path_14301-2" data-name="Path 14301" d="M5.374,5.715l1.5-3.193L1.491,0,0,3.2,5.374,5.715Z" transform="matrix(0.996, 0.087, -0.087, 0.996, 929.632, 3352.608)" fill="#f24669" fill-rule="evenodd"/>
      <path id="Path_14302-2" data-name="Path 14302" d="M5.541,5.4,6.807,2.107C4.955,1.384,3.083.7,1.219,0L0,3.311c1.852.7,3.7,1.372,5.54,2.09Z" transform="matrix(0.996, 0.087, -0.087, 0.996, 882.729, 3327.527)" fill="#f24669" fill-rule="evenodd"/>
      <path id="Path_14303-2" data-name="Path 14303" d="M5.5,5.492,6.836,2.226Q4.078,1.1,1.3,0L0,3.281Q2.763,4.365,5.5,5.492Z" transform="matrix(0.996, 0.087, -0.087, 0.996, 892.276, 3332.202)" fill="#f24669" fill-rule="evenodd"/>
      <path id="Path_14304-2" data-name="Path 14304" d="M5.458,5.569,6.853,2.328C5.023,1.548,3.2.764,1.365,0L0,3.254c1.822.76,3.64,1.541,5.458,2.315Z" transform="matrix(0.996, 0.087, -0.087, 0.996, 901.696, 3337.064)" fill="#f24669" fill-rule="evenodd"/>
      <path id="Path_14305-2" data-name="Path 14305" d="M5.7,4.971l.968-3.393C4.746,1.044,2.832.5.9,0L0,3.413C1.91,3.9,3.8,4.444,5.7,4.971Z" transform="matrix(0.996, 0.087, -0.087, 0.996, 853.331, 3315.165)" fill="#f24669" fill-rule="evenodd"/>
      <path id="Path_14306-2" data-name="Path 14306" d="M5.646,5.143,6.727,1.784C4.834,1.164,2.924.586,1.018,0L0,3.379c1.885.579,3.774,1.15,5.646,1.764Z" transform="matrix(0.996, 0.087, -0.087, 0.996, 863.246, 3318.958)" fill="#f24669" fill-rule="evenodd"/>
      <path id="Path_14307-2" data-name="Path 14307" d="M5.6,5.275,6.772,1.948C4.892,1.294,3.016.624,1.127,0L0,3.344c1.872.619,3.732,1.281,5.6,1.931Z" transform="matrix(0.996, 0.087, -0.087, 0.996, 872.998, 3323.08)" fill="#f24669" fill-rule="evenodd"/>
      <path id="Path_14308-2" data-name="Path 14308" d="M5.847,4.3,6.375.815,3.405.38C2.416.242,1.42.127.427,0L0,3.5c.972.127,1.951.237,2.928.374L5.847,4.3Z" transform="matrix(0.996, 0.087, -0.087, 0.996, 822.782, 3306.279)" fill="#f24669" fill-rule="evenodd"/>
      <path id="Path_14309-2" data-name="Path 14309" d="M5.805,4.56,6.5,1.1C5.52.891,4.536.723,3.552.536S1.591.157.6,0L0,3.477c.971.154,1.939.352,2.907.527s1.938.351,2.9.556Z" transform="matrix(0.996, 0.087, -0.087, 0.996, 833.076, 3308.763)" fill="#f24669" fill-rule="evenodd"/>
      <path id="Path_14310-2" data-name="Path 14310" d="M5.755,4.782l.838-3.427L3.682.654.754,0,0,3.447l2.882.644,2.873.691Z" transform="matrix(0.996, 0.087, -0.087, 0.996, 843.219, 3311.73)" fill="#f24669" fill-rule="evenodd"/>
      <path id="Path_14311-2" data-name="Path 14311" d="M6.065,3.528,6.015,0C4.009,0,2,.11,0,.18L.172,3.705c1.965-.069,3.926-.174,5.893-.177Z" transform="matrix(0.996, 0.087, -0.087, 0.996, 791.144, 3302.035)" fill="#f24669" fill-rule="evenodd"/>
      <path id="Path_14312-2" data-name="Path 14312" d="M5.9,3.688,6.052.162C4.05.094,2.049,0,.046,0L0,3.529c1.968,0,3.933.09,5.9.159Z" transform="matrix(0.996, 0.087, -0.087, 0.996, 801.844, 3302.966)" fill="#f24669" fill-rule="evenodd"/>
      <path id="Path_14313-2" data-name="Path 14313" d="M5.877,4.023,6.229.511c-1-.11-1.993-.2-2.99-.273L.243,0,0,3.521l2.94.233c.98.075,1.965.161,2.937.269Z" transform="matrix(0.996, 0.087, -0.087, 0.996, 812.304, 3304.31)" fill="#f24669" fill-rule="evenodd"/>
      <path id="Path_14314-2" data-name="Path 14314" d="M6.593,3.453,5.876,0c-.984.187-1.96.415-2.94.642L0,1.322.847,4.748l2.869-.666c.955-.221,1.914-.446,2.877-.629Z" transform="matrix(0.996, 0.087, -0.087, 0.996, 758.909, 3302.732)" fill="#f24669" fill-rule="evenodd"/>
      <path id="Path_14315-2" data-name="Path 14315" d="M6.438,3.494,5.945,0,2.966.434,0,.945.62,4.42l2.9-.5,2.915-.426Z" transform="matrix(0.996, 0.087, -0.087, 0.996, 769.598, 3301.811)" fill="#f24669" fill-rule="evenodd"/>
      <path id="Path_14316-2" data-name="Path 14316" d="M6.258,3.517,5.99,0l-3,.269L1.491.4,0,.577.39,4.084l1.465-.171,1.466-.132,2.936-.265Z" transform="matrix(0.996, 0.087, -0.087, 0.996, 780.312, 3301.568)" fill="#f24669" fill-rule="evenodd"/>
      <path id="Path_14317-2" data-name="Path 14317" d="M6.874,3.255,5.513,0C3.653.75,1.831,1.586,0,2.41L1.471,5.616c1.792-.805,3.581-1.627,5.4-2.361Z" transform="matrix(0.996, 0.087, -0.087, 0.996, 727.635, 3309.651)" fill="#f24669" fill-rule="evenodd"/>
      <path id="Path_14318-2" data-name="Path 14318" d="M6.806,3.333,5.65,0,2.81,1,0,2.073,1.273,5.365,4.025,4.313l2.781-.98Z" transform="matrix(0.996, 0.087, -0.087, 0.996, 737.873, 3306.677)" fill="#f24669" fill-rule="evenodd"/>
      <path id="Path_14319-2" data-name="Path 14319" d="M6.71,3.4,5.772,0,2.878.838,1.436,1.26,0,1.721,1.064,5.084l1.4-.449,1.412-.414L6.71,3.4Z" transform="matrix(0.996, 0.087, -0.087, 0.996, 748.264, 3304.362)" fill="#f24669" fill-rule="evenodd"/>
      <path id="Path_14320-2" data-name="Path 14320" d="M6.916,2.982,5.022,0C4.167.523,3.338,1.075,2.505,1.628L0,3.283,1.973,6.209,4.432,4.582c.821-.544,1.642-1.088,2.484-1.6Z" transform="matrix(0.996, 0.087, -0.087, 0.996, 698.28, 3322.153)" fill="#f24669" fill-rule="evenodd"/>
      <path id="Path_14321-2" data-name="Path 14321" d="M6.924,3.076,5.2,0c-.884.476-1.746.987-2.61,1.495L0,3.016,1.822,6.038l2.542-1.5c.851-.5,1.692-1,2.56-1.467Z" transform="matrix(0.996, 0.087, -0.087, 0.996, 707.799, 3317.44)" fill="#f24669" fill-rule="evenodd"/>
      <path id="Path_14322-2" data-name="Path 14322" d="M6.907,3.168,5.353,0,4,.654l-1.336.689L0,2.726,1.65,5.843,4.272,4.488,5.58,3.809l1.328-.641Z" transform="matrix(0.996, 0.087, -0.087, 0.996, 717.548, 3313.274)" fill="#f24669" fill-rule="evenodd"/>
      <path id="Path_14323-2" data-name="Path 14323" d="M6.806,2.692,4.528,0C3.008,1.294,1.479,2.578,0,3.921l2.337,2.64C3.8,5.237,5.307,3.971,6.806,2.692Z" transform="matrix(0.996, 0.087, -0.087, 0.996, 671.247, 3339.054)" fill="#f24669" fill-rule="evenodd"/>
      <path id="Path_14324-2" data-name="Path 14324" d="M6.852,2.786,4.691,0C3.9.616,3.1,1.212,2.324,1.845L0,3.732,2.232,6.466,4.523,4.605c.763-.627,1.554-1.212,2.329-1.819Z" transform="matrix(0.996, 0.087, -0.087, 0.996, 679.985, 3333.021)" fill="#f24669" fill-rule="evenodd"/>
      <path id="Path_14325-2" data-name="Path 14325" d="M6.89,2.882,4.855,0,3.624.858l-1.21.888L0,3.522,2.111,6.351,4.486,4.6,5.68,3.727,6.89,2.882Z" transform="matrix(0.996, 0.087, -0.087, 0.996, 688.953, 3327.395)" fill="#f24669" fill-rule="evenodd"/>
      <path id="Path_14326-2" data-name="Path 14326" d="M6.635,2.43,4.079,0C2.714,1.45,1.323,2.883,0,4.368L2.6,6.753C3.912,5.282,5.285,3.866,6.635,2.43Z" transform="matrix(0.996, 0.087, -0.087, 0.996, 646.469, 3359.148)" fill="#f24669" fill-rule="evenodd"/>
      <path id="Path_14327-2" data-name="Path 14327" d="M6.694,2.513,4.218,0C3.5.689,2.8,1.4,2.1,2.109L0,4.239,2.522,6.707,4.6,4.6c.691-.7,1.383-1.4,2.094-2.087Z" transform="matrix(0.996, 0.087, -0.087, 0.996, 654.479, 3352.162)" fill="#f24669" fill-rule="evenodd"/>
      <path id="Path_14328-2" data-name="Path 14328" d="M6.752,2.6,4.369,0C2.916,1.362,1.445,2.712,0,4.086L2.434,6.638C3.866,5.281,5.316,3.948,6.752,2.6Z" transform="matrix(0.996, 0.087, -0.087, 0.996, 662.691, 3345.479)" fill="#f24669" fill-rule="evenodd"/>
      <path id="Path_14329-2" data-name="Path 14329" d="M6.446,2.207,3.69,0C2.446,1.554,1.231,3.13,0,4.692L2.785,6.86C4,5.31,5.215,3.745,6.446,2.207Z" transform="matrix(0.996, 0.087, -0.087, 0.996, 623.698, 3381.521)" fill="#f24669" fill-rule="evenodd"/>
      <path id="Path_14330-2" data-name="Path 14330" d="M6.513,2.277,3.82,0C2.539,1.523,1.244,3.035,0,4.59l2.73,2.237c1.232-1.543,2.514-3.039,3.782-4.55Z" transform="matrix(0.996, 0.087, -0.087, 0.996, 631.074, 3373.868)" fill="#f24669" fill-rule="evenodd"/>
      <path id="Path_14331-2" data-name="Path 14331" d="M6.572,2.352,3.937,0,0,4.494,2.673,6.8l3.9-4.449Z" transform="matrix(0.996, 0.087, -0.087, 0.996, 638.621, 3366.423)" fill="#f24669" fill-rule="evenodd"/>
      <path id="Path_14333-2" data-name="Path 14333" d="M6.329,2.075,3.477,0C2.891.805,2.3,1.6,1.722,2.413L0,4.847,2.878,6.888,4.587,4.47c.569-.807,1.164-1.6,1.742-2.395Z" transform="matrix(0.996, 0.087, -0.087, 0.996, 609.483, 3397.407)" fill="#f24669" fill-rule="evenodd"/>
      <path id="Path_14334-2" data-name="Path 14334" d="M6.4,2.138,3.59,0C2.4,1.589,1.181,3.166,0,4.767l2.836,2.1C4.008,5.279,5.211,3.715,6.4,2.138Z" transform="matrix(0.996, 0.087, -0.087, 0.996, 616.455, 3389.426)" fill="#f24669" fill-rule="evenodd"/>
      <path id="Icon_awesome-angle-left" data-name="Icon awesome-angle-left" d="M14.58,10.447,4.648.515a1.745,1.745,0,0,0-2.476,0L.522,2.165a1.745,1.745,0,0,0,0,2.476l7.032,7.047-7.04,7.04a1.745,1.745,0,0,0,0,2.476l1.65,1.658a1.745,1.745,0,0,0,2.476,0l9.932-9.932A1.748,1.748,0,0,0,14.58,10.447Z" transform="matrix(-0.438, 0.899, -0.899, -0.438, 615.466, 3417.079)" fill="#f24669"/>
      <path id="Path_14335" data-name="Path 14335" d="M6.329,2.075,3.476,0C2.89.805,2.3,1.6,1.721,2.413L0,4.847,2.877,6.888,4.587,4.47c.569-.807,1.164-1.6,1.742-2.395Z" transform="matrix(0.998, -0.07, 0.07, 0.998, 602.894, 3406.363)" fill="#f24669" fill-rule="evenodd"/>
    </g>
  </g>
</svg>
