<svg xmlns="http://www.w3.org/2000/svg" width="105.924" height="107.63" viewBox="0 0 105.924 107.63">
  <g id="Group_11929" data-name="Group 11929" transform="translate(-1112.24 -5484.119)">
    <ellipse id="Ellipse_3" data-name="Ellipse 3" cx="52.962" cy="53.815" rx="52.962" ry="53.815" transform="translate(1112.24 5484.119)" fill="#fa745f" opacity="0.38"/>
    <path id="Icon_material-question-answer" data-name="Icon material-question-answer" d="M57.811,14.539h-5.77V40.5h-37.5v5.77a2.893,2.893,0,0,0,2.885,2.885H49.157L60.7,60.7V17.424A2.893,2.893,0,0,0,57.811,14.539ZM46.272,31.848V5.885A2.893,2.893,0,0,0,43.387,3H5.885A2.893,2.893,0,0,0,3,5.885V46.272L14.539,34.733H43.387A2.893,2.893,0,0,0,46.272,31.848Z" transform="translate(1133.063 5507)" fill="#f66650"/>
  </g>
</svg>
