<svg xmlns="http://www.w3.org/2000/svg" width="105" height="107" viewBox="0 0 105 107">
  <g id="Group_11927" data-name="Group 11927" transform="translate(-213.602 -5485.119)">
    <g id="Group_11926" data-name="Group 11926">
      <ellipse id="Ellipse_2" data-name="Ellipse 2" cx="52.5" cy="53.5" rx="52.5" ry="53.5" transform="translate(213.602 5485.119)" fill="#3af94d" opacity="0.38"/>
    </g>
    <path id="Icon_awesome-check-circle" data-name="Icon awesome-check-circle" d="M61.835,31.2A30.636,30.636,0,1,1,31.2.563,30.636,30.636,0,0,1,61.835,31.2ZM27.655,47.42l22.73-22.73a1.977,1.977,0,0,0,0-2.8l-2.8-2.8a1.976,1.976,0,0,0-2.8,0L26.257,37.637,17.6,28.982a1.977,1.977,0,0,0-2.8,0l-2.8,2.8a1.977,1.977,0,0,0,0,2.8L24.86,47.42a1.977,1.977,0,0,0,2.8,0Z" transform="translate(234.438 5507)" fill="#20be2f"/>
  </g>
</svg>
