<svg xmlns="http://www.w3.org/2000/svg" xmlns:xlink="http://www.w3.org/1999/xlink" width="523" height="520.441" viewBox="0 0 523 520.441">
  <defs>
    <linearGradient id="linear-gradient" x1="0.141" y1="0.175" x2="0.882" y2="0.853" gradientUnits="objectBoundingBox">
      <stop offset="0" stop-color="#7e7df4"/>
      <stop offset="0.802" stop-color="#605fbb"/>
    </linearGradient>
    <filter id="Path_15510" x="293.018" y="329.285" width="58.488" height="67.094" filterUnits="userSpaceOnUse">
      <feOffset dx="2.414" dy="10.864" input="SourceAlpha"/>
      <feGaussianBlur stdDeviation="0.604" result="blur"/>
      <feFlood flood-color="#8ea5b2" flood-opacity="0.6"/>
      <feComposite operator="in" in2="blur"/>
      <feComposite in="SourceGraphic"/>
    </filter>
  </defs>
  <g id="Group_11049" data-name="Group 11049" transform="translate(-343.869 -101.334)">
    <path id="Path_15473" data-name="Path 15473" d="M466.475,132.162c-47.5,24.568-84.042,110.116-38.672,184.375s-111.788,147.806-44,245.871,431.312,72.83,431.312-141.967S630.59,47.275,466.475,132.162Z" transform="translate(13.569 4.485)" fill="#a5ace6" opacity="0.4"/>
    <g id="Group_11036" data-name="Group 11036" transform="translate(343.869 101.334)">
      <path id="Path_15474" data-name="Path 15474" d="M552.861,214.756H358.181l-10.743-17.74h194.68Z" transform="translate(-341.736 -44.134)" fill="#605fbb" opacity="0.2"/>
      <g id="Group_11022" data-name="Group 11022" transform="translate(13.864 96.713)">
        <rect id="Rectangle_1530" data-name="Rectangle 1530" width="14.352" height="58.594" fill="#9291d0"/>
        <rect id="Rectangle_1531" data-name="Rectangle 1531" width="14.352" height="58.594" fill="#9291d0"/>
        <rect id="Rectangle_1532" data-name="Rectangle 1532" width="14.352" height="3.271" transform="translate(0 7.528)" fill="#9291d0" style="mix-blend-mode: multiply;isolation: isolate"/>
        <rect id="Rectangle_1533" data-name="Rectangle 1533" width="14.352" height="3.271" transform="translate(0 49.318)" fill="#9291d0" style="mix-blend-mode: multiply;isolation: isolate"/>
      </g>
      <g id="Group_11023" data-name="Group 11023" transform="translate(27.921 96.014)">
        <rect id="Rectangle_1534" data-name="Rectangle 1534" width="14.352" height="58.594" transform="matrix(0.991, -0.135, 0.135, 0.991, 0, 1.934)" fill="#9291d0"/>
        <rect id="Rectangle_1535" data-name="Rectangle 1535" width="14.352" height="58.594" transform="matrix(0.991, -0.135, 0.135, 0.991, 0, 1.934)" fill="#9291d0"/>
        <rect id="Rectangle_1536" data-name="Rectangle 1536" width="14.352" height="3.271" transform="matrix(0.991, -0.135, 0.135, 0.991, 1.015, 9.394)" fill="#9291d0" style="mix-blend-mode: multiply;isolation: isolate"/>
        <rect id="Rectangle_1537" data-name="Rectangle 1537" width="14.352" height="3.271" transform="matrix(0.991, -0.135, 0.135, 0.991, 6.647, 50.802)" fill="#9291d0" style="mix-blend-mode: multiply;isolation: isolate"/>
      </g>
      <g id="Group_11026" data-name="Group 11026" transform="translate(344.394 141.934)">
        <g id="Group_11024" data-name="Group 11024">
          <rect id="Rectangle_1538" data-name="Rectangle 1538" width="166.096" height="124.82" fill="#a5ace6"/>
          <rect id="Rectangle_1539" data-name="Rectangle 1539" width="154.161" height="112.885" transform="translate(5.968 5.968)" fill="#fff"/>
        </g>
        <g id="Group_11025" data-name="Group 11025" transform="translate(127.804 11.112)">
          <path id="Path_15475" data-name="Path 15475" d="M647.979,224.188l-2.422-2.4-3.343.684,4.425-14.9,5.765,1.713Z" transform="translate(-637.713 -190.866)" fill="#eb397b"/>
          <path id="Path_15476" data-name="Path 15476" d="M652.406,224.085l2.306-2.509,3.372.524-5.128-14.67-5.677,1.985Z" transform="translate(-634.685 -190.955)" fill="#eb397b"/>
          <g id="Path_15477" data-name="Path 15477" transform="translate(-639.397 -197.119)" fill="#ff578c" stroke-miterlimit="10">
            <path d="M 657.2127075195313 223.3343200683594 C 656.6713256835938 223.3343353271484 655.9874267578125 222.7616577148438 655.3259887695313 222.2078247070313 C 654.6082763671875 221.6068420410156 653.8660888671875 220.9854125976563 653.1972045898438 220.9854125976563 C 652.5283813476563 220.9854125976563 651.785888671875 221.6067810058594 651.0678100585938 222.2077026367188 C 650.406005859375 222.7615203857422 649.7216796875 223.3341979980469 649.18017578125 223.3343200683594 C 649.1046752929688 223.3343353271484 649.0350341796875 223.3236083984375 648.9672241210938 223.3015441894531 C 648.36181640625 223.105224609375 648.1106567382813 222.0936584472656 647.8677978515625 221.1153869628906 C 647.6380615234375 220.1899719238281 647.4210815429688 219.3159027099609 646.9081420898438 218.9433135986328 C 646.6282958984375 218.7392883300781 646.2034301757813 218.6442260742188 645.5712890625 218.6442260742188 C 645.2371215820313 218.6442260742188 644.873779296875 218.6695098876953 644.5224609375 218.6939697265625 C 644.1748046875 218.7181701660156 643.8153686523438 218.7431793212891 643.4888916015625 218.7431793212891 C 642.7547607421875 218.7432098388672 642.33447265625 218.6157379150391 642.1260986328125 218.3298950195313 C 641.7645263671875 217.8321533203125 642.1473388671875 216.8804321289063 642.517578125 215.9600524902344 C 642.86279296875 215.1017608642578 643.2198486328125 214.2142791748047 643.0183715820313 213.5931396484375 C 642.826171875 213.0025939941406 642.0714111328125 212.5323028564453 641.2723388671875 212.0343933105469 C 640.40771484375 211.4956359863281 639.5136108398438 210.9385375976563 639.5136108398438 210.2849273681641 C 639.5136108398438 209.6310729980469 640.408203125 209.0739288330078 641.2733154296875 208.5351104736328 C 642.0718994140625 208.0377197265625 642.8262329101563 207.5679016113281 643.018310546875 206.9784393310547 C 643.2198486328125 206.3562774658203 642.8627319335938 205.4686584472656 642.5173950195313 204.6102600097656 C 642.1472778320313 203.6903686523438 641.7645874023438 202.7391815185547 642.126220703125 202.2414093017578 C 642.3346557617188 201.9554595947266 642.7555541992188 201.827880859375 643.4908447265625 201.827880859375 C 643.8172607421875 201.827880859375 644.176513671875 201.8528289794922 644.5239868164063 201.876953125 C 644.8750610351563 201.9013214111328 645.238037109375 201.9265289306641 645.5718994140625 201.9265289306641 C 646.2036743164063 201.9265289306641 646.6282958984375 201.8317108154297 646.908203125 201.6281127929688 C 647.4210815429688 201.2547607421875 647.6380615234375 200.3807220458984 647.8677978515625 199.4553527832031 C 648.1106567382813 198.4770355224609 648.36181640625 197.4654083251953 648.9672241210938 197.2682952880859 C 649.0336303710938 197.2467803955078 649.1050415039063 197.23583984375 649.1792602539063 197.23583984375 C 649.7207641601563 197.23583984375 650.4052124023438 197.8088226318359 651.067138671875 198.3629608154297 C 651.785400390625 198.9642639160156 652.5281372070313 199.5860290527344 653.1972045898438 199.5860290527344 C 653.8663330078125 199.5860290527344 654.6087036132813 198.9642181396484 655.3267211914063 198.3628540039063 C 655.9882202148438 197.8087768554688 656.6723022460938 197.23583984375 657.213623046875 197.23583984375 C 657.287841796875 197.23583984375 657.3592529296875 197.2467803955078 657.42578125 197.2683410644531 C 658.031005859375 197.4654083251953 658.2822265625 198.4770202636719 658.525146484375 199.4553527832031 C 658.7548828125 200.3807220458984 658.971923828125 201.2547607421875 659.4847412109375 201.6280822753906 C 659.7650756835938 201.8317108154297 660.1900024414063 201.9265289306641 660.822021484375 201.9265289306641 C 661.156005859375 201.9265289306641 661.5191040039063 201.9013214111328 661.8703002929688 201.8769378662109 C 662.2176513671875 201.8528137207031 662.576904296875 201.827880859375 662.9031982421875 201.827880859375 C 663.63818359375 201.827880859375 664.0587768554688 201.9554290771484 664.266845703125 202.2414703369141 C 664.6292114257813 202.7392883300781 664.2464599609375 203.6908569335938 663.8762817382813 204.6110992431641 C 663.5309448242188 205.4695281982422 663.1739501953125 206.357177734375 663.376220703125 206.9784088134766 C 663.5674438476563 207.5680084228516 664.3218383789063 208.0379486083984 665.1204833984375 208.5355072021484 C 665.9851684570313 209.0742034912109 666.8792724609375 209.6312408447266 666.8792724609375 210.2849273681641 C 666.8792724609375 210.9385223388672 665.9851684570313 211.4956207275391 665.1205444335938 212.0343627929688 C 664.3214721679688 212.5322875976563 663.5667114257813 213.0025787353516 663.3745727539063 213.5930328369141 C 663.1731567382813 214.214111328125 663.5302734375 215.1013031005859 663.8756103515625 215.9592895507813 C 664.2461547851563 216.8799438476563 664.6293334960938 217.8319549560547 664.266845703125 218.3299407958984 C 664.0585327148438 218.61572265625 663.63818359375 218.7431793212891 662.9039916992188 218.7431793212891 C 662.5775146484375 218.7431793212891 662.2180786132813 218.7181701660156 661.8704833984375 218.6939697265625 C 661.5191040039063 218.6695098876953 661.15576171875 218.6442260742188 660.8216552734375 218.6442260742188 C 660.1895141601563 218.6442260742188 659.7646484375 218.7392883300781 659.4846801757813 218.9434356689453 C 658.971923828125 219.3159027099609 658.7548828125 220.1899719238281 658.5250854492188 221.1153869628906 C 658.2822265625 222.0936584472656 658.031005859375 223.105224609375 657.42578125 223.301513671875 C 657.35888671875 223.3232879638672 657.2872314453125 223.3343200683594 657.2127075195313 223.3343200683594 Z" stroke="none"/>
            <path d="M 657.213623046875 197.3525390625 C 656.7147216796875 197.3525390625 656.0471801757813 197.9116516113281 655.4016723632813 198.4523315429688 C 654.6676635742188 199.0670776367188 653.9087524414063 199.7027435302734 653.1972045898438 199.7027435302734 C 652.4857788085938 199.7027435302734 651.7265625 199.067138671875 650.9923706054688 198.4524688720703 C 650.346435546875 197.9116516113281 649.678466796875 197.3524169921875 649.1793212890625 197.3525390625 C 649.1172485351563 197.3525695800781 649.0579223632813 197.3616027832031 649.0033569335938 197.3792724609375 C 648.45947265625 197.5563507080078 648.2162475585938 198.5360412597656 647.9810791015625 199.4834747314453 C 647.7460327148438 200.4300384521484 647.5241088867188 201.3241271972656 646.9768676757813 201.7224884033203 C 646.671875 201.9443206787109 646.2385864257813 202.0432281494141 645.5718994140625 202.0432281494141 C 645.2340698242188 202.0432281494141 644.8689575195313 202.0178833007813 644.5159301757813 201.9933624267578 C 644.1704711914063 201.9693908691406 643.813232421875 201.944580078125 643.4908447265625 201.944580078125 C 642.8059692382813 201.9446105957031 642.4022827148438 202.0608062744141 642.2206420898438 202.3100128173828 C 641.89697265625 202.7555389404297 642.2673950195313 203.67626953125 642.6256713867188 204.5666961669922 C 642.978759765625 205.4443969726563 643.3439331054688 206.3519744873047 643.1292724609375 207.0146026611328 C 642.924072265625 207.6444854736328 642.1521606445313 208.1252288818359 641.3349609375 208.6341857910156 C 640.4969482421875 209.1561431884766 639.6303100585938 209.6958923339844 639.6303100585938 210.2849273681641 C 639.6303100585938 210.8737487792969 640.4964599609375 211.4134216308594 641.3341064453125 211.9353485107422 C 642.1517333984375 212.4448089599609 642.9240112304688 212.926025390625 643.12939453125 213.55712890625 C 643.3438720703125 214.2185516357422 642.9788818359375 215.1260223388672 642.6258544921875 216.0036010742188 C 642.2675170898438 216.89453125 641.8969116210938 217.8158111572266 642.220458984375 218.2611541748047 C 642.402099609375 218.5103912353516 642.8051147460938 218.6264801025391 643.4888916015625 218.62646484375 C 643.8113403320313 218.62646484375 644.168701171875 218.6015930175781 644.5143432617188 218.5775299072266 C 644.8677368164063 218.5529479980469 645.2330932617188 218.5275115966797 645.5712890625 218.5275115966797 C 646.2383422851563 218.5275115966797 646.6719360351563 218.6266937255859 646.9767456054688 218.8488922119141 C 647.5241088867188 219.2464752197266 647.7460327148438 220.1406097412109 647.9810791015625 221.0872650146484 C 648.2162475585938 222.0346069335938 648.45947265625 223.0142059326172 649.0032958984375 223.1905670166016 C 649.0592041015625 223.2087554931641 649.1171264648438 223.2175903320313 649.1802368164063 223.2175903320313 C 649.6793212890625 223.2175903320313 650.34716796875 222.65869140625 650.9930419921875 222.1181793212891 C 651.72705078125 221.5038909912109 652.4860229492188 220.8686828613281 653.1972045898438 220.8686828613281 C 653.9085083007813 220.8686828613281 654.667236328125 221.5039825439453 655.4009399414063 222.1183471679688 C 656.04638671875 222.6587829589844 656.7137451171875 223.2175903320313 657.2127075195313 223.2175903320313 C 657.2758178710938 223.2175903320313 657.3336791992188 223.2087554931641 657.3897705078125 223.1904907226563 C 657.933349609375 223.0142059326172 658.1765747070313 222.0346069335938 658.4118041992188 221.0872650146484 C 658.6469116210938 220.1406097412109 658.868896484375 219.2464752197266 659.4158935546875 218.84912109375 C 659.7210083007813 218.6266937255859 660.154541015625 218.5275115966797 660.8216552734375 218.5275115966797 C 661.1598510742188 218.5275115966797 661.5252075195313 218.5529479980469 661.8786010742188 218.5775299072266 C 662.2241821289063 218.6015930175781 662.5816040039063 218.62646484375 662.9039916992188 218.62646484375 C 663.5877685546875 218.62646484375 663.9908447265625 218.5103912353516 664.1724853515625 218.2612609863281 C 664.4968872070313 217.8155517578125 664.1260375976563 216.89404296875 663.767333984375 216.0028533935547 C 663.4142456054688 215.1255645751953 663.049072265625 214.2183990478516 663.2636108398438 213.5569305419922 C 663.4688720703125 212.926025390625 664.2411499023438 212.4447937011719 665.058837890625 211.9353179931641 C 665.8964233398438 211.4134063720703 666.7625122070313 210.8737335205078 666.7625122070313 210.2849273681641 C 666.7625122070313 209.6960296630859 665.8963623046875 209.1564178466797 665.0587158203125 208.6345825195313 C 664.2415161132813 208.1254425048828 663.4696044921875 207.64453125 663.2651977539063 207.0145416259766 C 663.0498046875 206.3529815673828 663.4149169921875 205.4453125 663.7680053710938 204.5675506591797 C 664.1262817382813 203.6767883300781 664.4967651367188 202.7557067871094 664.1724243164063 202.3101196289063 C 663.9910278320313 202.0607299804688 663.5877075195313 201.944580078125 662.9031982421875 201.944580078125 C 662.5809326171875 201.944580078125 662.2237548828125 201.9693756103516 661.8783569335938 201.9933624267578 C 661.5252075195313 202.0178680419922 661.1600341796875 202.0432281494141 660.822021484375 202.0432281494141 C 660.1551513671875 202.0432281494141 659.7215576171875 201.9443511962891 659.416015625 201.7224426269531 C 658.868896484375 201.3241271972656 658.6469116210938 200.4300384521484 658.411865234375 199.4834747314453 C 658.1765747070313 198.5360412597656 657.933349609375 197.5563354492188 657.3898315429688 197.3793640136719 C 657.3341064453125 197.3613128662109 657.2764892578125 197.3525390625 657.213623046875 197.3525390625 M 649.1792602539063 197.1191253662109 C 650.3610229492188 197.1188201904297 651.9584350585938 199.4693298339844 653.1972045898438 199.4693298339844 C 654.4359741210938 199.4693298339844 656.0321044921875 197.1191253662109 657.2136840820313 197.1191253662109 C 657.298583984375 197.1191253662109 657.3814086914063 197.1312713623047 657.4617919921875 197.1573181152344 C 658.7032470703125 197.5615386962891 658.5195922851563 200.7811126708984 659.5534057617188 201.5337219238281 C 659.8502197265625 201.7492980957031 660.305419921875 201.809814453125 660.822021484375 201.809814453125 C 661.4820556640625 201.809814453125 662.2426147460938 201.7111663818359 662.9031372070313 201.7111663818359 C 663.5457153320313 201.7111663818359 664.09326171875 201.8044738769531 664.3612060546875 202.1728057861328 C 665.1137084960938 203.2066040039063 663.0829467773438 205.7008361816406 663.4871826171875 206.9422760009766 C 663.8754272460938 208.1390686035156 666.9959716796875 208.9571380615234 666.9959716796875 210.2849273681641 C 666.9959716796875 211.6127166748047 663.8754272460938 212.4307708740234 663.485595703125 213.629150390625 C 663.0829467773438 214.8706512451172 665.1137084960938 217.3648223876953 664.3612060546875 218.3986358642578 C 664.093017578125 218.7665252685547 663.5457153320313 218.8598937988281 662.9039916992188 218.8598937988281 C 662.2431030273438 218.8598937988281 661.4819946289063 218.7609252929688 660.8216552734375 218.7609252929688 C 660.3048706054688 218.7609252929688 659.8499755859375 218.8215484619141 659.5534057617188 219.0377502441406 C 658.5195922851563 219.7887268066406 658.7032470703125 223.0099182128906 657.4617919921875 223.4125366210938 C 657.381103515625 223.4387817382813 657.2979736328125 223.4510345458984 657.2127075195313 223.4510345458984 C 656.03125 223.4510345458984 654.4356079101563 221.1021118164063 653.1972045898438 221.1021118164063 C 651.9589233398438 221.1021118164063 650.3618774414063 223.4510345458984 649.1802368164063 223.4510345458984 C 649.0948486328125 223.4510345458984 649.0118408203125 223.4388122558594 648.9310913085938 223.4125366210938 C 647.6895141601563 223.0099182128906 647.8734130859375 219.7887268066406 646.8395385742188 219.0377502441406 C 646.5430297851563 218.8215942382813 646.0879516601563 218.7609252929688 645.5712280273438 218.7609252929688 C 644.9109497070313 218.7609252929688 644.1498413085938 218.8598937988281 643.4888916015625 218.8598937988281 C 642.8470458984375 218.8598937988281 642.2999877929688 218.7665863037109 642.0317993164063 218.3986358642578 C 641.28076171875 217.3648223876953 643.3099975585938 214.8706512451172 642.9073486328125 213.629150390625 C 642.5173950195313 212.4307708740234 639.3969116210938 211.6127166748047 639.3969116210938 210.2849273681641 C 639.3969116210938 208.9571380615234 642.5173950195313 208.1390686035156 642.9073486328125 206.9422760009766 C 643.3099975585938 205.6992034912109 641.28076171875 203.2066040039063 642.0317993164063 202.1728057861328 C 642.3002319335938 201.8045349121094 642.8483276367188 201.711181640625 643.4908447265625 201.7111663818359 C 644.1515502929688 201.7111358642578 644.912109375 201.809814453125 645.5718994140625 201.809814453125 C 646.0884399414063 201.809814453125 646.5430908203125 201.7493438720703 646.8395385742188 201.5337219238281 C 647.8734130859375 200.7811126708984 647.6895141601563 197.5615386962891 648.9310913085938 197.1573181152344 C 649.0114135742188 197.1312866210938 649.0943603515625 197.119140625 649.1792602539063 197.1191253662109 Z" stroke="none" fill="#ff8aae"/>
          </g>
          <path id="Path_15478" data-name="Path 15478" d="M660.846,208.847a9.324,9.324,0,1,1-9.323-9.323A9.324,9.324,0,0,1,660.846,208.847Z" transform="translate(-637.722 -195.681)" fill="#b3578c" style="mix-blend-mode: multiply;isolation: isolate"/>
          <circle id="Ellipse_3162" data-name="Ellipse 3162" cx="7.459" cy="7.459" r="7.459" transform="translate(6.34 5.707)" fill="#ff578c" stroke="#ff8eb2" stroke-miterlimit="10" stroke-width="0.233"/>
        </g>
        <rect id="Rectangle_1540" data-name="Rectangle 1540" width="95.48" height="9.057" transform="translate(29.092 18.531)" fill="#eb397b" opacity="0.4"/>
        <rect id="Rectangle_1541" data-name="Rectangle 1541" width="69.621" height="2.264" transform="translate(42.021 32.916)" fill="#a5b4d0" opacity="0.4"/>
        <rect id="Rectangle_1542" data-name="Rectangle 1542" width="104.929" height="3.481" transform="translate(24.367 53.973)" fill="#a5b4d0" opacity="0.4"/>
        <rect id="Rectangle_1543" data-name="Rectangle 1543" width="104.929" height="3.481" transform="translate(24.367 62.41)" fill="#a5b4d0" opacity="0.4"/>
        <rect id="Rectangle_1544" data-name="Rectangle 1544" width="104.929" height="3.481" transform="translate(24.367 70.848)" fill="#a5b4d0" opacity="0.4"/>
        <rect id="Rectangle_1545" data-name="Rectangle 1545" width="104.929" height="3.481" transform="translate(24.367 79.285)" fill="#a5b4d0" opacity="0.4"/>
        <rect id="Rectangle_1546" data-name="Rectangle 1546" width="63.653" height="1.682" transform="translate(45.005 100.528)" fill="#8196be" opacity="0.4"/>
      </g>
      <rect id="Rectangle_1547" data-name="Rectangle 1547" width="490.505" height="22.795" transform="translate(10.768 434.237)" fill="#5b4b9f"/>
      <path id="Path_15479" data-name="Path 15479" d="M840.8,396.133H351.491L373,419.793H862.313V404.484L840.586,373.1Z" transform="translate(-339.313 61.133)" fill="#605fbb" opacity="0.2" style="mix-blend-mode: multiply;isolation: isolate"/>
      <path id="Path_15480" data-name="Path 15480" d="M658.936,350.539a9.016,9.016,0,0,0-5.27,1.711V340.562a1.772,1.772,0,0,0-1.77-1.772H613.108a1.772,1.772,0,0,0-1.772,1.772v36.644a16.411,16.411,0,0,0,16.41,16.411h9.512a16.411,16.411,0,0,0,16.409-16.411v-3.015a9.062,9.062,0,0,0,14.36-7.382V359.63A9.1,9.1,0,0,0,658.936,350.539Zm4.615,16.271a4.615,4.615,0,1,1-9.231,0V359.63a4.615,4.615,0,1,1,9.231,0Z" transform="translate(-183.974 40.62)" fill="#ff578c"/>
      <g id="Group_11028" data-name="Group 11028" transform="translate(0 242.175)">
        <path id="Path_15481" data-name="Path 15481" d="M428.237,377.6H364.787a5.909,5.909,0,0,1-5.909-5.91h0a5.908,5.908,0,0,1,5.909-5.909h63.451a5.91,5.91,0,0,1,5.91,5.909h0A5.91,5.91,0,0,1,428.237,377.6Z" transform="translate(-334.897 -185.417)" fill="#eb397b"/>
        <path id="Path_15482" data-name="Path 15482" d="M377.057,372.875h18.41a9.921,9.921,0,1,0-18.744-.275C376.833,372.694,376.948,372.769,377.057,372.875Z" transform="translate(-324.529 -189.13)" fill="#eb397b"/>
        <path id="Path_15483" data-name="Path 15483" d="M346.556,309.5a6.049,6.049,0,0,0-1.665,8.392l53.672,80.252a6.051,6.051,0,0,0,10.06-6.728L354.95,311.16A6.051,6.051,0,0,0,346.556,309.5Zm58.283,83.093a2.251,2.251,0,0,1-3.744,2.5l-52.421-78.379a2.251,2.251,0,1,1,3.742-2.5Z" transform="translate(-343.869 -219.678)" fill="#eb397b"/>
        <path id="Path_15484" data-name="Path 15484" d="M347.1,352.886a6.05,6.05,0,0,0,8.2-2.451l45.852-84.964a6.051,6.051,0,1,0-10.649-5.747l-45.851,84.964A6.05,6.05,0,0,0,347.1,352.886Zm46.209-90.368a2.252,2.252,0,0,1,3.963,2.139l-44.782,82.981a2.251,2.251,0,0,1-3.963-2.138Z" transform="translate(-343.84 -250.721)" fill="#eb397b"/>
        <path id="Path_15485" data-name="Path 15485" d="M396.049,269.852h0a7.915,7.915,0,0,1-10.812,2.9l-8.794-5.078a7.914,7.914,0,0,1-2.9-10.812h0a7.914,7.914,0,0,1,10.811-2.9l8.8,5.078A7.915,7.915,0,0,1,396.049,269.852Z" transform="translate(-326.763 -252.901)" fill="#eb397b"/>
        <g id="Group_11027" data-name="Group 11027" transform="translate(60.259 1.761)">
          <path id="Path_15486" data-name="Path 15486" d="M419.624,259.2l-21.606,39.923-4.536-2.454a22.7,22.7,0,0,1-9.159-30.764h0a22.7,22.7,0,0,1,30.764-9.159Z" transform="translate(-381.583 -254.003)" fill="#eb397b"/>
          <rect id="Rectangle_1548" data-name="Rectangle 1548" width="48.755" height="7.868" transform="translate(13.044 45.505) rotate(-61.578)" fill="#f59cbd"/>
        </g>
      </g>
      <rect id="Rectangle_1549" data-name="Rectangle 1549" width="194.68" height="6.249" transform="translate(5.703 152.883)" fill="#605fbb"/>
      <rect id="Rectangle_1550" data-name="Rectangle 1550" width="49.218" height="10.191" rx="0.514" transform="translate(53.825 142.692)" fill="#eb397b"/>
      <rect id="Rectangle_1551" data-name="Rectangle 1551" width="48.081" height="7.517" transform="translate(54.393 144.029)" fill="#fff"/>
      <rect id="Rectangle_1552" data-name="Rectangle 1552" width="48.081" height="2.003" transform="translate(54.393 144.029)" fill="#d3cccc"/>
      <rect id="Rectangle_1553" data-name="Rectangle 1553" width="47.066" height="9.005" rx="0.545" transform="translate(51.714 133.687)" fill="#605fbb"/>
      <rect id="Rectangle_1554" data-name="Rectangle 1554" width="47.067" height="9.005" rx="0.545" transform="translate(55.407 124.681)" fill="#eb397b"/>
      <ellipse id="Ellipse_3163" data-name="Ellipse 3163" cx="19.382" cy="2.955" rx="19.382" ry="2.955" transform="translate(55.865 135.235)" fill="#605fbb" opacity="0.5" style="mix-blend-mode: screen;isolation: isolate"/>
      <rect id="Rectangle_1555" data-name="Rectangle 1555" width="2.638" height="9.005" transform="translate(61.106 124.681)" fill="#f27ea9" style="mix-blend-mode: screen;isolation: isolate"/>
      <rect id="Rectangle_1556" data-name="Rectangle 1556" width="29.654" height="4.538" transform="translate(66.805 126.827)" fill="#f27ea9"/>
      <g id="Group_11030" data-name="Group 11030" transform="translate(100.164 59.847)">
        <line id="Line_59" data-name="Line 59" x1="21.271" y2="65.058" transform="translate(33.578 11.684)" fill="none" stroke="#6055a8" stroke-linecap="round" stroke-miterlimit="10" stroke-width="1.256"/>
        <g id="Group_11029" data-name="Group 11029" transform="translate(0 0)">
          <circle id="Ellipse_3164" data-name="Ellipse 3164" cx="31.72" cy="31.72" r="31.72" transform="matrix(0.577, -0.816, 0.816, 0.577, 0, 51.793)" fill="#9291d0"/>
          <path id="Path_15487" data-name="Path 15487" d="M449.646,145.91q.5.146.989.307a34.224,34.224,0,1,1-26.06,63.085" transform="translate(-395.786 -134.533)" fill="none" stroke="#6055a8" stroke-linecap="round" stroke-miterlimit="10" stroke-width="1.256"/>
          <path id="Path_15488" data-name="Path 15488" d="M461.555,184.051c-5.329,16.3-18.273,26.688-28.912,23.21s-14.944-19.509-9.616-35.807,18.273-26.688,28.912-23.21S466.884,167.753,461.555,184.051Z" transform="translate(-398.078 -133.539)" fill="none" stroke="#9291d0" stroke-miterlimit="10" stroke-width="0.725" style="mix-blend-mode: multiply;isolation: isolate"/>
          <circle id="Ellipse_3165" data-name="Ellipse 3165" cx="31.046" cy="31.046" r="31.046" transform="translate(5.522 64.967) rotate(-73.208)" fill="none" stroke="#9291d0" stroke-miterlimit="10" stroke-width="0.897" style="mix-blend-mode: multiply;isolation: isolate"/>
          <line id="Line_60" data-name="Line 60" x1="19.296" y2="59.018" transform="translate(34.565 14.704)" fill="none" stroke="#9291d0" stroke-miterlimit="10" stroke-width="0.725" style="mix-blend-mode: multiply;isolation: isolate"/>
          <path id="Path_15489" data-name="Path 15489" d="M426.745,148.534s4.143,9.068,16.985,13.265a36.561,36.561,0,0,0,22.336.182" transform="translate(-394.489 -132.964)" fill="none" stroke="#9291d0" stroke-miterlimit="10" stroke-width="0.897" style="mix-blend-mode: multiply;isolation: isolate"/>
          <path id="Path_15490" data-name="Path 15490" d="M417.824,176.71s8.7-4.87,21.542-.671A35.9,35.9,0,0,1,458,189.845" transform="translate(-399.822 -117.542)" fill="none" stroke="#9291d0" stroke-miterlimit="10" stroke-width="0.897" style="mix-blend-mode: multiply;isolation: isolate"/>
          <line id="Line_61" data-name="Line 61" x2="59.018" y2="19.296" transform="translate(14.704 34.565)" fill="none" stroke="#9291d0" stroke-miterlimit="10" stroke-width="0.725" style="mix-blend-mode: multiply;isolation: isolate"/>
        </g>
        <rect id="Rectangle_1557" data-name="Rectangle 1557" width="4.729" height="11.002" transform="translate(38.885 78.882)" fill="#6055a8"/>
        <rect id="Rectangle_1558" data-name="Rectangle 1558" width="9.748" height="1.953" transform="translate(36.086 89.884)" fill="#6055a8"/>
        <rect id="Rectangle_1559" data-name="Rectangle 1559" width="23.838" height="1.953" transform="translate(29.041 91.357)" fill="#6055a8"/>
      </g>
      <g id="Group_11031" data-name="Group 11031" transform="translate(205.361 0)">
        <circle id="Ellipse_3166" data-name="Ellipse 3166" cx="52.464" cy="52.464" r="52.464" transform="translate(10.484 8.293)" fill="#605fbb"/>
        <circle id="Ellipse_3167" data-name="Ellipse 3167" cx="46.703" cy="46.703" r="46.703" transform="matrix(0.233, -0.973, 0.973, 0.233, 6.661, 95.312)" fill="#c3bff0" style="mix-blend-mode: screen;isolation: isolate"/>
        <circle id="Ellipse_3168" data-name="Ellipse 3168" cx="44.511" cy="44.511" r="44.511" transform="translate(0 62.949) rotate(-45)" fill="#fff" style="mix-blend-mode: screen;isolation: isolate"/>
        <path id="Path_15491" data-name="Path 15491" d="M512.783,152.06h0a1.32,1.32,0,0,1-1.32-1.318V122.328a1.319,1.319,0,0,1,1.32-1.318h0a1.319,1.319,0,0,1,1.318,1.318v28.414A1.32,1.32,0,0,1,512.783,152.06Z" transform="translate(-449.041 -89.572)" fill="#605fbb"/>
        <path id="Path_15492" data-name="Path 15492" d="M511.811,139.206h0a1.318,1.318,0,0,1,1.861-.08l20.936,19.21a1.319,1.319,0,0,1,.082,1.863h0a1.319,1.319,0,0,1-1.863.08l-20.936-19.21A1.318,1.318,0,0,1,511.811,139.206Z" transform="translate(-449.04 -78.949)" fill="#605fbb"/>
        <rect id="Rectangle_1560" data-name="Rectangle 1560" width="1.318" height="6.515" transform="translate(62.289 98.901)" fill="#605fbb" opacity="0.4"/>
        <rect id="Rectangle_1561" data-name="Rectangle 1561" width="1.318" height="6.515" transform="translate(62.289 19.115)" fill="#605fbb" opacity="0.4"/>
        <rect id="Rectangle_1562" data-name="Rectangle 1562" width="1.318" height="6.515" transform="translate(26.111 59.617) rotate(90)" fill="#605fbb" opacity="0.4"/>
        <rect id="Rectangle_1563" data-name="Rectangle 1563" width="1.318" height="6.515" transform="translate(105.896 59.617) rotate(90)" fill="#605fbb" opacity="0.4"/>
      </g>
      <g id="Group_11034" data-name="Group 11034" transform="translate(109.971 180.813)">
        <g id="Group_11032" data-name="Group 11032">
          <path id="Path_15493" data-name="Path 15493" d="M544.819,226.7l.145.784L483.277,263.35,412.84,251.932l-.145-.784L474.237,214.5Z" transform="translate(-412.695 -214.497)" fill="#b2abff"/>
          <path id="Path_15494" data-name="Path 15494" d="M544.91,227.189,483.368,263.84l-70.582-12.2,61.542-36.651Z" transform="translate(-412.641 -214.204)" fill="#735eeb"/>
          <path id="Path_15495" data-name="Path 15495" d="M502.473,252.58l-63.636,11.776-4.416-23.865c-1.558-8.419,62.078-20.195,63.636-11.776Z" transform="translate(-399.724 -207.73)" fill="#5e53d8"/>
          <path id="Path_15496" data-name="Path 15496" d="M500.821,243.864c.743,4.014-12.9,9.9-30.472,13.156s-32.421,2.633-33.164-1.381,12.9-9.906,30.473-13.158S500.078,239.849,500.821,243.864Z" transform="translate(-398.072 -199.014)" fill="#3a3282"/>
          <path id="Path_15497" data-name="Path 15497" d="M418.976,281.809l-1.061-3.159a.558.558,0,0,0,.359-.519.551.551,0,0,0-.364-.518,1.865,1.865,0,0,0-.9-2.87l-.051-36.927a.623.623,0,0,0-1.246,0l.053,36.927a1.868,1.868,0,0,0-.892,2.873.547.547,0,0,0-.172.93l-1.09,3.269a.376.376,0,0,0,.714.236l.98-2.94-.481,3.049a.376.376,0,1,0,.743.117l.358-2.269.091,2.376a.377.377,0,1,0,.753-.029l-.081-2.119.327,2.039a.376.376,0,0,0,.743-.12l-.5-3.084,1,2.975a.376.376,0,0,0,.713-.24Z" transform="translate(-412.158 -200.928)" fill="#ff77de"/>
        </g>
        <g id="Group_11033" data-name="Group 11033" transform="translate(26.308 46.161)">
          <path id="Path_15498" data-name="Path 15498" d="M546.486,386.508h-56.95l5.351-41.027h46.248Z" transform="translate(-393.066 -182.353)" fill="#474ba2"/>
          <rect id="Rectangle_1564" data-name="Rectangle 1564" width="264.062" height="169.079" rx="4.552" fill="#605fbb"/>
          <rect id="Rectangle_1565" data-name="Rectangle 1565" width="245.662" height="137.377" transform="translate(8.578 10.94)" fill="#d3d9ff"/>
          <path id="Path_15499" data-name="Path 15499" d="M575.776,374.639H477.313a2.052,2.052,0,0,1-2.052-2.052h0a2.052,2.052,0,0,1,2.052-2.052h98.464a2.052,2.052,0,0,1,2.052,2.052h0A2.052,2.052,0,0,1,575.776,374.639Z" transform="translate(-401.6 -167.376)" fill="#605fbb"/>
        </g>
        <rect id="Rectangle_1566" data-name="Rectangle 1566" width="57.549" height="1.361" transform="translate(216.598 67.409)" fill="#fff"/>
        <rect id="Rectangle_1567" data-name="Rectangle 1567" width="57.549" height="1.361" transform="translate(216.598 70.811)" fill="#fff"/>
        <rect id="Rectangle_1568" data-name="Rectangle 1568" width="57.549" height="1.361" transform="translate(216.598 74.213)" fill="#fff"/>
        <rect id="Rectangle_1569" data-name="Rectangle 1569" width="57.549" height="1.361" transform="translate(216.598 77.616)" fill="#fff"/>
        <rect id="Rectangle_1570" data-name="Rectangle 1570" width="57.549" height="1.361" transform="translate(216.598 81.018)" fill="#fff"/>
        <rect id="Rectangle_1571" data-name="Rectangle 1571" width="57.549" height="1.361" transform="translate(216.598 84.42)" fill="#fff"/>
        <rect id="Rectangle_1572" data-name="Rectangle 1572" width="57.549" height="1.361" transform="translate(216.598 87.822)" fill="#fff"/>
        <rect id="Rectangle_1573" data-name="Rectangle 1573" width="1.755" height="122.978" transform="translate(206.748 66.002)" fill="#fff"/>
        <rect id="Rectangle_1574" data-name="Rectangle 1574" width="157.592" height="87.52" transform="translate(42.121 69.098)" fill="#d3d9ff" style="mix-blend-mode: multiply;isolation: isolate"/>
        <rect id="Rectangle_1575" data-name="Rectangle 1575" width="157.592" height="1.97" transform="translate(42.121 156.617)" fill="#fff"/>
        <rect id="Rectangle_1576" data-name="Rectangle 1576" width="82.173" height="1.97" transform="translate(42.121 156.617)" fill="#eb397b"/>
        <path id="Path_15500" data-name="Path 15500" d="M492.951,313.8a1.794,1.794,0,1,1-1.794-1.793A1.795,1.795,0,0,1,492.951,313.8Z" transform="translate(-366.863 -156.202)" fill="#eb397b"/>
        <circle id="Ellipse_3169" data-name="Ellipse 3169" cx="27.016" cy="27.016" r="27.016" transform="translate(78.49 111.31) rotate(-45)" fill="none" stroke="#fff" stroke-miterlimit="10" stroke-width="1.057"/>
        <path id="Path_15501" data-name="Path 15501" d="M500.121,288.293,480.99,277.248v22.091Z" transform="translate(-371.867 -176.984)" fill="#fff"/>
        <rect id="Rectangle_1577" data-name="Rectangle 1577" width="157.592" height="29.278" transform="translate(42.121 165.201)" fill="#fff" opacity="0.3"/>
        <path id="Path_15502" data-name="Path 15502" d="M601.054,285.778H553a4.749,4.749,0,0,1-4.749-4.75h0A4.748,4.748,0,0,1,553,276.279h48.051a4.749,4.749,0,0,1,4.749,4.749h0A4.749,4.749,0,0,1,601.054,285.778Z" transform="translate(-331.656 -177.563)" fill="#eb397b"/>
        <path id="Path_15503" data-name="Path 15503" d="M601.054,293.658H553a4.748,4.748,0,0,1-4.749-4.749h0A4.748,4.748,0,0,1,553,284.161h48.051a4.749,4.749,0,0,1,4.749,4.749h0A4.749,4.749,0,0,1,601.054,293.658Z" transform="translate(-331.656 -172.851)" fill="#eb397b"/>
        <path id="Path_15504" data-name="Path 15504" d="M601.054,301.541H553a4.748,4.748,0,0,1-4.749-4.749h0a4.749,4.749,0,0,1,4.749-4.75h48.051a4.749,4.749,0,0,1,4.749,4.75h0A4.748,4.748,0,0,1,601.054,301.541Z" transform="translate(-331.656 -168.14)" fill="#eb397b"/>
        <path id="Path_15505" data-name="Path 15505" d="M601.054,309.421H553a4.747,4.747,0,0,1-4.749-4.749h0A4.748,4.748,0,0,1,553,299.924h48.051a4.749,4.749,0,0,1,4.749,4.749h0A4.747,4.747,0,0,1,601.054,309.421Z" transform="translate(-331.656 -163.428)" fill="#eb397b"/>
      </g>
      <path id="Path_15506" data-name="Path 15506" d="M583.227,375.269H459.563a2.894,2.894,0,0,1-2.894-2.894h0a2.894,2.894,0,0,1,2.894-2.894H583.227a2.893,2.893,0,0,1,2.892,2.894h0A2.893,2.893,0,0,1,583.227,375.269Z" transform="translate(-276.436 58.968)" fill="#ff578c"/>
      <path id="Path_15507" data-name="Path 15507" d="M460.192,373.108a76.1,76.1,0,0,0,18.011-3.987c8.16-3.023,41.93-13.091,41.93,3.987Z" transform="translate(-274.33 55.342)" fill="#e9ecff"/>
      <path id="Path_15508" data-name="Path 15508" d="M557.554,373.108a76.1,76.1,0,0,1-18.01-3.987c-8.162-3.023-41.931-13.091-41.931,3.987Z" transform="translate(-251.96 55.342)" fill="#e9ecff"/>
      <path id="Path_15509" data-name="Path 15509" d="M601.593,378.553H568.034A14.564,14.564,0,0,1,582.6,363.989h4.432a14.563,14.563,0,0,1,14.563,14.564Z" transform="translate(-209.861 55.684)" fill="#605fbb"/>
      <g transform="matrix(1, 0, 0, 1, 0, 0)" filter="url(#Path_15510)">
        <path id="Path_15510-2" data-name="Path 15510" d="M570.879,321.337l-40.527-13.508a2.123,2.123,0,0,0-2.686,2.684l13.509,40.527a2.123,2.123,0,0,0,3.515.831l7.38-7.382a2.125,2.125,0,0,1,3,0l15.938,15.938a2.122,2.122,0,0,0,3,0l6.252-6.252a2.123,2.123,0,0,0,0-3l-15.938-15.938a2.123,2.123,0,0,1,0-3l7.38-7.382A2.123,2.123,0,0,0,570.879,321.337Z" transform="translate(-234.06 22.04)" stroke="#fff" stroke-miterlimit="10" stroke-width="0.91" fill="url(#linear-gradient)"/>
      </g>
      <g id="Group_11035" data-name="Group 11035" transform="translate(345.068 36.16)">
        <rect id="Rectangle_1578" data-name="Rectangle 1578" width="152.315" height="10.234" transform="translate(0 53.576)" fill="#605fbb"/>
        <rect id="Rectangle_1579" data-name="Rectangle 1579" width="11.599" height="47.737" transform="translate(90.056 5.416) rotate(18.55)" fill="#eb397b"/>
        <rect id="Rectangle_1580" data-name="Rectangle 1580" width="14.563" height="53.576" transform="translate(101.098)" fill="#a1256c"/>
        <rect id="Rectangle_1581" data-name="Rectangle 1581" width="12.944" height="36.481" transform="translate(117.351 17.096)" fill="#eb397b"/>
        <path id="Path_15511" data-name="Path 15511" d="M642.836,150.917c0,7.139-1.794,12.926-4.009,12.926s-4.01-5.787-4.01-12.926,1.8-12.926,4.01-12.926S642.836,143.778,642.836,150.917Z" transform="translate(-515.005 -115.581)" fill="#faccdd" style="mix-blend-mode: screen;isolation: isolate"/>
        <rect id="Rectangle_1582" data-name="Rectangle 1582" width="14.563" height="2.814" transform="translate(101.098 7.739)" fill="#a048a9" style="mix-blend-mode: screen;isolation: isolate"/>
        <rect id="Rectangle_1583" data-name="Rectangle 1583" width="14.563" height="2.814" transform="translate(101.098 12.312)" fill="#a048a9" style="mix-blend-mode: screen;isolation: isolate"/>
        <rect id="Rectangle_1584" data-name="Rectangle 1584" width="14.563" height="2.814" transform="translate(101.098 40.875)" fill="#a048a9" style="mix-blend-mode: screen;isolation: isolate"/>
        <rect id="Rectangle_1585" data-name="Rectangle 1585" width="14.563" height="2.814" transform="translate(101.098 45.448)" fill="#a048a9" style="mix-blend-mode: screen;isolation: isolate"/>
        <path id="Rectangle_1586" data-name="Rectangle 1586" d="M.368,0H47.331A.369.369,0,0,1,47.7.369V9.413a.369.369,0,0,1-.369.369H.369A.369.369,0,0,1,0,9.413V.368A.368.368,0,0,1,.368,0Z" transform="translate(25.538 43.795)" fill="#5150b5"/>
        <path id="Rectangle_1587" data-name="Rectangle 1587" d="M.369,0H47.331A.368.368,0,0,1,47.7.368V9.413a.368.368,0,0,1-.368.368H.369A.369.369,0,0,1,0,9.413V.369A.369.369,0,0,1,.369,0Z" transform="translate(21.95 34.277)" fill="#7e7dc7"/>
      </g>
    </g>
  </g>
</svg>
