<svg xmlns="http://www.w3.org/2000/svg" width="244.75" height="176.849" viewBox="0 0 244.75 176.849">
  <g id="Group_10859" data-name="Group 10859" transform="translate(0 -54.953)">
    <g id="Background_Complete" data-name="Background Complete" transform="translate(0 54.953)">
      <g id="Group_10815" data-name="Group 10815">
        <rect id="Rectangle_983" data-name="Rectangle 983" width="244.75" height="0.122" transform="translate(0 160.285)" fill="#ebebeb"/>
        <rect id="Rectangle_984" data-name="Rectangle 984" width="16.213" height="0.122" transform="translate(204.014 168.164)" fill="#ebebeb"/>
        <rect id="Rectangle_985" data-name="Rectangle 985" width="4.255" height="0.122" transform="translate(157.877 169.492)" fill="#ebebeb"/>
        <rect id="Rectangle_986" data-name="Rectangle 986" width="9.395" height="0.122" transform="translate(194.129 163.618)" fill="#ebebeb"/>
        <rect id="Rectangle_987" data-name="Rectangle 987" width="21.143" height="0.122" transform="translate(25.679 164.441)" fill="#ebebeb"/>
        <rect id="Rectangle_988" data-name="Rectangle 988" width="3.1" height="0.122" transform="translate(51.18 164.441)" fill="#ebebeb"/>
        <rect id="Rectangle_989" data-name="Rectangle 989" width="45.854" height="0.122" transform="translate(64.355 166.507)" fill="#ebebeb"/>
        <path id="Path_15111" data-name="Path 15111" d="M135.523,193.407H41a2.8,2.8,0,0,1-2.794-2.794V57.747A2.8,2.8,0,0,1,41,54.953h94.522a2.8,2.8,0,0,1,2.794,2.794V190.613A2.8,2.8,0,0,1,135.523,193.407ZM41,55.075a2.674,2.674,0,0,0-2.672,2.671V190.613A2.674,2.674,0,0,0,41,193.284h94.522a2.674,2.674,0,0,0,2.671-2.672V57.747a2.674,2.674,0,0,0-2.671-2.671Z" transform="translate(-19.505 -54.953)" fill="#ebebeb"/>
        <path id="Path_15112" data-name="Path 15112" d="M351.82,193.407H257.3a2.8,2.8,0,0,1-2.794-2.794V57.747a2.8,2.8,0,0,1,2.794-2.794H351.82a2.8,2.8,0,0,1,2.795,2.794V190.613A2.8,2.8,0,0,1,351.82,193.407ZM257.3,55.075a2.674,2.674,0,0,0-2.671,2.671V190.613a2.674,2.674,0,0,0,2.671,2.672H351.82a2.675,2.675,0,0,0,2.672-2.672V57.747a2.675,2.675,0,0,0-2.672-2.671Z" transform="translate(-129.925 -54.953)" fill="#ebebeb"/>
      </g>
      <g id="Group_10827" data-name="Group 10827" transform="translate(39.992 12.754)">
        <g id="Group_10820" data-name="Group 10820" transform="translate(42.422)">
          <g id="Group_10818" data-name="Group 10818" transform="translate(3.516 3.724)">
            <g id="Group_10817" data-name="Group 10817">
              <g id="Group_10816" data-name="Group 10816">
                <rect id="Rectangle_990" data-name="Rectangle 990" width="113.415" height="75.415" transform="translate(115.17 75.415) rotate(180)" fill="#e6e6e6"/>
                <rect id="Rectangle_991" data-name="Rectangle 991" width="113.415" height="75.415" transform="translate(113.415 75.415) rotate(180)" fill="#f5f5f5"/>
                <rect id="Rectangle_992" data-name="Rectangle 992" width="68.337" height="107.113" transform="translate(110.264 3.539) rotate(90)" fill="#fff"/>
                <rect id="Rectangle_993" data-name="Rectangle 993" width="68.337" height="1.327" transform="translate(4.478 3.539) rotate(90)" fill="#e6e6e6"/>
                <rect id="Rectangle_994" data-name="Rectangle 994" width="110.808" height="4.751" transform="translate(112.111 55.387) rotate(180)" fill="#f5f5f5"/>
              </g>
            </g>
          </g>
          <g id="Group_10819" data-name="Group 10819" opacity="0.4">
            <rect id="Rectangle_995" data-name="Rectangle 995" width="10.708" height="63.803" fill="#e6e6e6"/>
            <rect id="Rectangle_996" data-name="Rectangle 996" width="5.308" height="58.676" transform="translate(16.016 58.676) rotate(180)" fill="#f5f5f5"/>
            <rect id="Rectangle_997" data-name="Rectangle 997" width="10.708" height="63.803" transform="translate(16.016)" fill="#e6e6e6"/>
            <rect id="Rectangle_998" data-name="Rectangle 998" width="5.308" height="58.676" transform="translate(32.031 58.676) rotate(180)" fill="#f5f5f5"/>
            <rect id="Rectangle_999" data-name="Rectangle 999" width="10.708" height="63.803" transform="translate(32.031)" fill="#e6e6e6"/>
            <rect id="Rectangle_1000" data-name="Rectangle 1000" width="5.308" height="58.676" transform="translate(48.047 58.676) rotate(180)" fill="#f5f5f5"/>
            <rect id="Rectangle_1001" data-name="Rectangle 1001" width="10.708" height="63.803" transform="translate(48.047)" fill="#e6e6e6"/>
            <rect id="Rectangle_1002" data-name="Rectangle 1002" width="5.308" height="58.676" transform="translate(64.063 58.676) rotate(180)" fill="#f5f5f5"/>
            <rect id="Rectangle_1003" data-name="Rectangle 1003" width="10.708" height="63.803" transform="translate(64.063)" fill="#e6e6e6"/>
            <rect id="Rectangle_1004" data-name="Rectangle 1004" width="5.308" height="58.676" transform="translate(80.079 58.676) rotate(180)" fill="#f5f5f5"/>
            <rect id="Rectangle_1005" data-name="Rectangle 1005" width="10.708" height="63.803" transform="translate(80.079)" fill="#e6e6e6"/>
            <rect id="Rectangle_1006" data-name="Rectangle 1006" width="5.308" height="58.676" transform="translate(96.094 58.676) rotate(180)" fill="#f5f5f5"/>
            <rect id="Rectangle_1007" data-name="Rectangle 1007" width="10.708" height="63.803" transform="translate(96.094)" fill="#e6e6e6"/>
            <rect id="Rectangle_1008" data-name="Rectangle 1008" width="5.308" height="58.676" transform="translate(112.11 58.676) rotate(180)" fill="#f5f5f5"/>
            <rect id="Rectangle_1009" data-name="Rectangle 1009" width="10.708" height="63.803" transform="translate(112.11)" fill="#e6e6e6"/>
          </g>
        </g>
        <g id="Group_10824" data-name="Group 10824" transform="translate(0.536 95.938)">
          <rect id="Rectangle_1010" data-name="Rectangle 1010" width="25.106" height="51.593" transform="translate(25.106 51.593) rotate(180)" fill="#ebebeb"/>
          <path id="Path_15113" data-name="Path 15113" d="M87.562,371.441H82.793V360.934h9.768Z" transform="translate(-82.793 -319.848)" fill="#f5f5f5"/>
          <rect id="Rectangle_1011" data-name="Rectangle 1011" width="25.106" height="51.593" transform="translate(168.351 51.593) rotate(180)" fill="#ebebeb"/>
          <rect id="Rectangle_1012" data-name="Rectangle 1012" width="147.407" height="45.145" transform="translate(147.407 45.145) rotate(180)" fill="#f5f5f5"/>
          <g id="Group_10821" data-name="Group 10821" transform="translate(98.407 3.038)">
            <path id="Path_15114" data-name="Path 15114" d="M327.928,312.577h-43.7a.4.4,0,0,1-.4-.4V283.609a.4.4,0,0,1,.4-.4h8.07a.4.4,0,0,1,.239.079,14.08,14.08,0,0,0,3.941,2.021,16.577,16.577,0,0,0,5.277.842H310.4a15.533,15.533,0,0,0,9.218-2.863.4.4,0,0,1,.239-.079h8.069a.4.4,0,0,1,.4.4v28.567A.4.4,0,0,1,327.928,312.577Zm-43.3-.8h42.894V284.01H319.99a16.377,16.377,0,0,1-9.588,2.942h-8.645a17.379,17.379,0,0,1-5.532-.884,14.93,14.93,0,0,1-4.057-2.058h-7.536Z" transform="translate(-283.829 -283.207)" fill="#e6e6e6"/>
          </g>
          <g id="Group_10822" data-name="Group 10822" transform="translate(51.451 3.038)">
            <path id="Path_15115" data-name="Path 15115" d="M232,312.577H188.3a.4.4,0,0,1-.4-.4V283.609a.4.4,0,0,1,.4-.4h7.632a.4.4,0,0,1,.239.079,14.005,14.005,0,0,0,3.94,2.021,16.582,16.582,0,0,0,5.278.842h8.645a15.516,15.516,0,0,0,9.208-2.863.4.4,0,0,1,.239-.079H232a.4.4,0,0,1,.4.4v28.567A.4.4,0,0,1,232,312.577Zm-43.3-.8H231.6V284.01h-7.984a16.357,16.357,0,0,1-9.579,2.942h-8.645a17.376,17.376,0,0,1-5.532-.884,14.829,14.829,0,0,1-4.057-2.058h-7.1Z" transform="translate(-187.902 -283.207)" fill="#e6e6e6"/>
          </g>
          <g id="Group_10823" data-name="Group 10823" transform="translate(4.496 3.038)">
            <path id="Path_15116" data-name="Path 15116" d="M136.075,312.577h-43.7a.4.4,0,0,1-.4-.4V283.609a.4.4,0,0,1,.4-.4h7.631a.4.4,0,0,1,.238.079,14.1,14.1,0,0,0,3.941,2.021,16.577,16.577,0,0,0,5.277.842h8.645a15.533,15.533,0,0,0,9.218-2.863.4.4,0,0,1,.239-.079h8.508a.4.4,0,0,1,.4.4v28.567A.4.4,0,0,1,136.075,312.577Zm-43.3-.8h42.894V284.01H127.7a16.377,16.377,0,0,1-9.588,2.942h-8.645a17.376,17.376,0,0,1-5.532-.884,14.929,14.929,0,0,1-4.056-2.058h-7.1Z" transform="translate(-91.977 -283.207)" fill="#e6e6e6"/>
          </g>
          <path id="Path_15117" data-name="Path 15117" d="M368.975,371.441h4.768V360.934h-9.768Z" transform="translate(-226.336 -319.848)" fill="#f5f5f5"/>
        </g>
        <g id="Group_10826" data-name="Group 10826" transform="translate(0 5.533)">
          <path id="Path_15118" data-name="Path 15118" d="M138.058,200.616H134.1c.027-2.743-.013-9.7-.28-25.646-.481-28.9-1.4-30.663-1.4-30.663l4.705,14.264a38.678,38.678,0,0,1,1.931,10.379C139.549,180.07,137.607,188.949,138.058,200.616Z" transform="translate(-107.589 -118.855)" fill="#e6e6e6"/>
          <path id="Path_15119" data-name="Path 15119" d="M144.973,147.789c5.282-7.994,15.827-12.165,26.6-16.092,4.231-1.542-7.645,17.585-16.278,26.256-6.708,6.736-13.191,6.585-15.139,13.243C139.786,163.467,140.422,154.677,144.973,147.789Z" transform="translate(-111.497 -112.373)" fill="#e6e6e6"/>
          <path id="Path_15120" data-name="Path 15120" d="M109.125,122.595c-4.139-9.348-14.6-21.472-26.36-30.013-4.616-3.354,6.775,25.432,14.809,37.228,6.255,9.183,12.092,14.774,13,21.325C114.518,142.939,113.263,131.943,109.125,122.595Z" transform="translate(-81.699 -92.312)" fill="#e6e6e6"/>
          <g id="Group_10825" data-name="Group 10825" transform="translate(16.439 71.44)">
            <path id="Path_15121" data-name="Path 15121" d="M128.591,260.113h0a8.769,8.769,0,0,0,8.754-8.265l.774-7.927H119.062l.774,7.927A8.769,8.769,0,0,0,128.591,260.113Z" transform="translate(-117.212 -241.148)" fill="#f0f0f0"/>
            <path id="Path_15122" data-name="Path 15122" d="M115.9,241.071h21.526l.617-2.816H115.282Z" transform="translate(-115.282 -238.256)" fill="#f0f0f0"/>
            <path id="Path_15123" data-name="Path 15123" d="M118.128,250.936h19.4l.556-2.816H117.572Z" transform="translate(-116.451 -243.292)" fill="#f0f0f0"/>
          </g>
        </g>
      </g>
    </g>
    <g id="Table" transform="translate(46.363 183.878)">
      <g id="Group_10835" data-name="Group 10835">
        <g id="Group_10828" data-name="Group 10828">
          <rect id="Rectangle_1013" data-name="Rectangle 1013" width="152.025" height="17.21" fill="#407bff"/>
          <rect id="Rectangle_1014" data-name="Rectangle 1014" width="32.61" height="17.21" transform="translate(119.415)" opacity="0.3"/>
        </g>
        <g id="Group_10829" data-name="Group 10829" transform="translate(0 17.21)">
          <rect id="Rectangle_1015" data-name="Rectangle 1015" width="16.783" height="30.714" fill="#407bff"/>
          <path id="Path_15124" data-name="Path 15124" d="M94.715,353.493v1.717L106.6,358.8v25.407h4.9V353.493Z" transform="translate(-94.715 -353.493)" opacity="0.3"/>
        </g>
        <g id="Group_10831" data-name="Group 10831" transform="translate(135.242 17.21)">
          <g id="Group_10830" data-name="Group 10830">
            <rect id="Rectangle_1016" data-name="Rectangle 1016" width="16.783" height="30.714" fill="#407bff"/>
            <rect id="Rectangle_1017" data-name="Rectangle 1017" width="16.783" height="30.714" opacity="0.2"/>
          </g>
          <path id="Path_15125" data-name="Path 15125" d="M371,353.493v1.717l11.888,3.59v25.407h4.895V353.493Z" transform="translate(-371 -353.493)" opacity="0.3"/>
        </g>
        <g id="Group_10832" data-name="Group 10832" transform="translate(102.632 17.21)">
          <rect id="Rectangle_1018" data-name="Rectangle 1018" width="16.783" height="30.714" fill="#407bff"/>
          <path id="Path_15126" data-name="Path 15126" d="M304.381,353.493v1.717l11.888,3.59v25.407h4.9V353.493Z" transform="translate(-304.381 -353.493)" opacity="0.3"/>
        </g>
        <g id="Group_10834" data-name="Group 10834" transform="translate(32.61 17.21)">
          <g id="Group_10833" data-name="Group 10833">
            <rect id="Rectangle_1019" data-name="Rectangle 1019" width="16.783" height="30.714" fill="#407bff"/>
            <rect id="Rectangle_1020" data-name="Rectangle 1020" width="16.783" height="30.714" opacity="0.2"/>
          </g>
          <path id="Path_15127" data-name="Path 15127" d="M161.333,353.493v1.717l11.888,3.59v25.407h4.895V353.493Z" transform="translate(-161.333 -353.493)" opacity="0.3"/>
        </g>
      </g>
    </g>
    <g id="Character" transform="translate(63.526 94.998)">
      <g id="Group_10850" data-name="Group 10850" transform="translate(0 0)">
        <g id="Group_10841" data-name="Group 10841" transform="translate(0 20.252)">
          <g id="Group_10840" data-name="Group 10840">
            <g id="Group_10836" data-name="Group 10836" transform="translate(18.852)">
              <path id="Path_15128" data-name="Path 15128" d="M263.344,243.376H170.4a2.092,2.092,0,0,1-2.107-2.249l3.829-60.745a2.436,2.436,0,0,1,2.39-2.249h92.943a2.092,2.092,0,0,1,2.107,2.249l-3.829,60.745A2.436,2.436,0,0,1,263.344,243.376Z" transform="translate(-168.29 -178.133)" fill="#263238"/>
              <path id="Path_15129" data-name="Path 15129" d="M263.344,243.376H170.4a2.092,2.092,0,0,1-2.107-2.249l3.829-60.745a2.436,2.436,0,0,1,2.39-2.249h92.943a2.092,2.092,0,0,1,2.107,2.249l-3.829,60.745A2.436,2.436,0,0,1,263.344,243.376Z" transform="translate(-168.29 -178.133)" opacity="0.6"/>
            </g>
            <g id="Group_10837" data-name="Group 10837" transform="translate(18.158)">
              <path id="Path_15130" data-name="Path 15130" d="M261.927,243.376H168.984a2.092,2.092,0,0,1-2.107-2.249l3.829-60.745a2.436,2.436,0,0,1,2.39-2.249H266.04a2.092,2.092,0,0,1,2.107,2.249l-3.829,60.745A2.436,2.436,0,0,1,261.927,243.376Z" transform="translate(-166.873 -178.133)" fill="#263238"/>
            </g>
            <g id="Group_10839" data-name="Group 10839" transform="translate(0 66.007)">
              <g id="Group_10838" data-name="Group 10838">
                <path id="Path_15131" data-name="Path 15131" d="M242.872,312.979H132.279a2.688,2.688,0,0,0-2.424,1.516.774.774,0,0,0,.71,1.105H244.587a.774.774,0,0,0,.709-1.105A2.688,2.688,0,0,0,242.872,312.979Z" transform="translate(-129.778 -312.979)" fill="#263238"/>
              </g>
              <path id="Path_15132" data-name="Path 15132" d="M341.807,312.979H326.08a2.688,2.688,0,0,0-2.424,1.516.774.774,0,0,0,.71,1.105h19.158a.774.774,0,0,0,.709-1.105A2.688,2.688,0,0,0,341.807,312.979Z" transform="translate(-228.713 -312.979)" opacity="0.6"/>
              <path id="Path_15133" data-name="Path 15133" d="M336.291,316.152h-4.059a.358.358,0,0,1-.357-.357h0a.358.358,0,0,1,.357-.357h4.059a.358.358,0,0,1,.357.357h0A.358.358,0,0,1,336.291,316.152Z" transform="translate(-232.948 -314.234)" fill="#407bff"/>
              <path id="Path_15134" data-name="Path 15134" d="M229.563,316.152H225.5a.358.358,0,0,1-.357-.357h0a.358.358,0,0,1,.357-.357h4.059a.358.358,0,0,1,.357.357h0A.358.358,0,0,1,229.563,316.152Z" transform="translate(-178.464 -314.234)" fill="#fff" opacity="0.7"/>
              <rect id="Rectangle_1021" data-name="Rectangle 1021" width="3.243" height="0.714" rx="0.357" transform="translate(104.597 1.203)" fill="#407bff"/>
            </g>
            <path id="Path_15135" data-name="Path 15135" d="M171.161,242.652l3.553-56.352a.948.948,0,0,1,.931-.876h91.774a.815.815,0,0,1,.82.876l-3.552,56.352a.949.949,0,0,1-.931.876H171.982A.815.815,0,0,1,171.161,242.652Z" transform="translate(-150.903 -181.856)" fill="#fff"/>
            <path id="Path_15136" data-name="Path 15136" d="M221.561,181.88l-30.569,58.1H168.441a.814.814,0,0,1-.822-.876l3.554-56.351a.951.951,0,0,1,.93-.876Z" transform="translate(-149.095 -180.046)" fill="#407bff" opacity="0.1"/>
            <path id="Path_15137" data-name="Path 15137" d="M293.2,181.88l-30.569,58.1H255.5l30.569-58.1Z" transform="translate(-193.959 -180.046)" fill="#407bff" opacity="0.1"/>
            <path id="Path_15138" data-name="Path 15138" d="M325.034,182.756l-3.554,56.351a.947.947,0,0,1-.93.876H285.81l30.569-58.1h7.832A.816.816,0,0,1,325.034,182.756Z" transform="translate(-209.432 -180.046)" fill="#407bff" opacity="0.1"/>
            <path id="Path_15139" data-name="Path 15139" d="M274.252,181.292a.712.712,0,0,1-.7.659.612.612,0,0,1-.618-.659.712.712,0,0,1,.7-.659A.611.611,0,0,1,274.252,181.292Z" transform="translate(-202.858 -179.409)" fill="#fff" opacity="0.4"/>
          </g>
        </g>
        <g id="Group_10849" data-name="Group 10849" transform="translate(14.181)">
          <g id="Group_10846" data-name="Group 10846">
            <path id="Path_15140" data-name="Path 15140" d="M232.3,151.046c-2.676,3.064-4.223,12.455-2.239,17.078s-21.023,9.246-2.041,16.752,34.156-1.2,28.663-8.974.591-20.729-5.766-24C245.172,148.947,237.671,144.9,232.3,151.046Z" transform="translate(-190.256 -142.415)" fill="#263238"/>
            <path id="Path_15141" data-name="Path 15141" d="M204.246,229.658q-1.508,5.172-3.178,10.284c-1.117,3.414-2.257,6.813-3.476,10.217l-.465,1.28-.236.642-.072.193-.116.286a6.17,6.17,0,0,1-.283.58,5.371,5.371,0,0,1-2.059,2.085,5.657,5.657,0,0,1-2.568.675,9.532,9.532,0,0,1-3.666-.721,20.734,20.734,0,0,1-2.757-1.362,43.765,43.765,0,0,1-8.752-7.076l2.11-2.488c.712.453,1.466.938,2.2,1.394s1.5.894,2.247,1.331a45.046,45.046,0,0,0,4.508,2.307,15.284,15.284,0,0,0,2.171.768,3.965,3.965,0,0,0,1.6.185c.139-.025.11-.078,0-.033s-.235.169-.242.156,0,0,0-.029a.128.128,0,0,1,0-.028l.037-.124.188-.632.373-1.273L194.806,238q1.525-5.142,3.142-10.259Z" transform="translate(-167.87 -183.206)" fill="#b65b52"/>
            <path id="Path_15142" data-name="Path 15142" d="M174.71,259.1l-5.67-2.114,2.259,6.008s4.011.58,5.568-1.532l-1.268-1.7A1.966,1.966,0,0,0,174.71,259.1Z" transform="translate(-164.002 -198.134)" fill="#b55b52"/>
            <path id="Path_15143" data-name="Path 15143" d="M158.747,258.741l2.163,4.927,5.134-.677-2.259-6.007Z" transform="translate(-158.747 -198.134)" fill="#b55b52"/>
            <g id="Group_10842" data-name="Group 10842" transform="translate(27.802 37.157)">
              <path id="Path_15144" data-name="Path 15144" d="M219.966,213.1c-2.6.662-4.421,11.367-4.421,11.367l7.168,4.874s6.873-10.8,4.872-13.659C225.5,212.705,223.762,212.135,219.966,213.1Z" transform="translate(-215.545 -212.669)" fill="#407bff"/>
              <path id="Path_15145" data-name="Path 15145" d="M219.966,213.1c-2.6.662-4.421,11.367-4.421,11.367l7.168,4.874s6.873-10.8,4.872-13.659C225.5,212.705,223.762,212.135,219.966,213.1Z" transform="translate(-215.545 -212.669)" fill="#fff" opacity="0.5"/>
            </g>
            <path id="Path_15146" data-name="Path 15146" d="M222.671,221.5l5.569,1.29.534,5.443a63.145,63.145,0,0,1-3.12,5.617L221.3,230.9C221.492,228.393,221.963,223.192,222.671,221.5Z" transform="translate(-190.683 -180.02)" opacity="0.2"/>
            <g id="Group_10843" data-name="Group 10843" transform="translate(31.473 35.762)">
              <path id="Path_15147" data-name="Path 15147" d="M223.793,211.645s-3.007,1.059,3.016,38.091h25.632c-.43-10.432-.443-16.865,4.544-38.275a75.674,75.674,0,0,0-10.885-1.434,81.506,81.506,0,0,0-11.639,0C229.463,210.485,223.793,211.645,223.793,211.645Z" transform="translate(-223.043 -209.818)" fill="#407bff"/>
              <path id="Path_15148" data-name="Path 15148" d="M223.793,211.645s-3.007,1.059,3.016,38.091h25.632c-.43-10.432-.443-16.865,4.544-38.275a75.674,75.674,0,0,0-10.885-1.434,81.506,81.506,0,0,0-11.639,0C229.463,210.485,223.793,211.645,223.793,211.645Z" transform="translate(-223.043 -209.818)" fill="#fff" opacity="0.5"/>
            </g>
            <path id="Path_15149" data-name="Path 15149" d="M280.007,233.484l3.308,2.816c-.707,3.744-1.179,6.865-1.484,9.638C281.213,243.158,279.639,235.613,280.007,233.484Z" transform="translate(-220.622 -186.138)" opacity="0.2"/>
            <path id="Path_15150" data-name="Path 15150" d="M255.707,183.474c-.734,3.745-1.467,10.607,1.153,13.106a9.948,9.948,0,0,1-8.934,5.611c-6.5,0-2.705-5.61-2.705-5.61,4.176-1,4.069-4.1,3.341-7.006Z" transform="translate(-202.33 -160.608)" fill="#b55b52"/>
            <path id="Path_15151" data-name="Path 15151" d="M255.253,207.039c-.616,1.249-2.6,4.105-8.155,5.119a.594.594,0,0,1-.442-.086,3.706,3.706,0,0,1-1.228-4.032.608.608,0,0,0-.812-.727,7.887,7.887,0,0,0-1.225.65.594.594,0,0,0-.2.223c-.4.765-2.048,4.5,2.914,6.807a.619.619,0,0,0,.251.059,11.873,11.873,0,0,0,11.317-6.371.615.615,0,0,0-.054-.675,6.255,6.255,0,0,0-1.5-1.208A.6.6,0,0,0,255.253,207.039Z" transform="translate(-201.555 -172.468)" fill="#fafafa"/>
            <path id="Path_15152" data-name="Path 15152" d="M263.828,236.716l-6.608-.191a.5.5,0,0,1-.489-.544l.064-.814a.564.564,0,0,1,.572-.513l6.608.191a.5.5,0,0,1,.488.544l-.064.814A.565.565,0,0,1,263.828,236.716Z" transform="translate(-208.767 -186.734)" fill="#fafafa"/>
            <path id="Path_15153" data-name="Path 15153" d="M257.431,188.559l-4.229,3.608a11.965,11.965,0,0,1,.359,2.066c1.6-.231,3.787-1.982,3.957-3.652A5.608,5.608,0,0,0,257.431,188.559Z" transform="translate(-206.966 -163.204)" opacity="0.2"/>
            <path id="Path_15154" data-name="Path 15154" d="M258.577,158.318c-1.182,6.151-1.551,8.78-5.094,11.558-5.329,4.178-12.626,1.381-13.305-5-.612-5.743,1.423-14.837,7.811-16.521A8.543,8.543,0,0,1,258.577,158.318Z" transform="translate(-200.265 -142.527)" fill="#b55b52"/>
            <path id="Path_15155" data-name="Path 15155" d="M270.246,155.648c-.761,3.854-.941,8.974,2.608,8.974s6.294-6.009,3.249-10.714S270.694,153.377,270.246,155.648Z" transform="translate(-215.437 -144.419)" fill="#263238"/>
            <path id="Path_15156" data-name="Path 15156" d="M260.618,148.465c0,4.188-5.276,2.117-7.615.311s-2.468-1.608-6.771-1.616-5.194-.3-6.472-2.366-1.164-3.427,1.716-2.991.459-2.5,2.608-4.134,4.682-1.219,7.615,2.5S260.615,141.2,260.618,148.465Z" transform="translate(-199.707 -136.76)" fill="#263238"/>
            <g id="Group_10844" data-name="Group 10844" transform="translate(43.986 5.143)">
              <ellipse id="Ellipse_3159" data-name="Ellipse 3159" cx="3.574" cy="2.315" rx="3.574" ry="2.315" transform="matrix(0.281, -0.96, 0.96, 0.281, 9.92, 18.237)" fill="#fff"/>
              <path id="Path_15157" data-name="Path 15157" d="M256.4,168.115a8.432,8.432,0,0,1-3.3-.677.183.183,0,0,1,.143-.338,8.021,8.021,0,0,0,6.235.033,7.8,7.8,0,0,0,4.287-4.283c1.484-4.2,2.968-9.455,1.232-12.71a5.047,5.047,0,0,0-3.376-2.512.184.184,0,1,1,.092-.355,5.4,5.4,0,0,1,3.608,2.694c1.8,3.381.3,8.731-1.213,13.013a8.165,8.165,0,0,1-4.49,4.492A8.427,8.427,0,0,1,256.4,168.115Z" transform="translate(-250.842 -147.267)" fill="#fff"/>
              <path id="Path_15158" data-name="Path 15158" d="M276.428,176.929c-.436,1.489-1.437,2.506-2.235,2.272s-1.092-1.631-.655-3.119,1.437-2.505,2.236-2.271S276.864,175.441,276.428,176.929Z" transform="translate(-261.231 -160.8)" fill="#407bff" opacity="0.6"/>
              <rect id="Rectangle_1022" data-name="Rectangle 1022" width="3.195" height="1.354" rx="0.677" transform="matrix(0.982, 0.189, -0.189, 0.982, 0.256, 18.865)" fill="#fff"/>
            </g>
            <path id="Path_15159" data-name="Path 15159" d="M246.864,170.046a13.6,13.6,0,0,1-2.216,2.989,2.189,2.189,0,0,0,1.756.57Z" transform="translate(-202.6 -153.753)" fill="#a02724"/>
            <path id="Path_15160" data-name="Path 15160" d="M251.339,181.555a.1.1,0,0,0,.041.015,4.341,4.341,0,0,0,3.084-.94.1.1,0,1,0-.124-.145,4.227,4.227,0,0,1-2.937.9.1.1,0,0,0-.064.174Z" transform="translate(-205.994 -159.07)" fill="#263238"/>
            <path id="Path_15161" data-name="Path 15161" d="M260.542,163.368a.191.191,0,0,0,.24-.275,2.853,2.853,0,0,0-2.228-1.389.191.191,0,0,0-.007.381,2.472,2.472,0,0,1,1.912,1.211A.189.189,0,0,0,260.542,163.368Z" transform="translate(-209.6 -149.494)" fill="#263238"/>
            <path id="Path_15162" data-name="Path 15162" d="M255.825,169.155c-.086.505-.423.869-.753.813s-.528-.511-.442-1.016.423-.869.753-.813S255.911,168.65,255.825,169.155Z" transform="translate(-207.685 -152.776)" fill="#263238"/>
            <path id="Path_15163" data-name="Path 15163" d="M244.166,167.17c-.086.505-.423.869-.753.813s-.528-.511-.442-1.016.423-.868.753-.812S244.252,166.665,244.166,167.17Z" transform="translate(-201.733 -151.763)" fill="#263238"/>
            <path id="Path_15164" data-name="Path 15164" d="M243.616,165.688l-1.154-.556S242.923,166.185,243.616,165.688Z" transform="translate(-201.484 -151.244)" fill="#263238"/>
            <path id="Path_15165" data-name="Path 15165" d="M255.275,167.673l-1.153-.556S254.583,168.17,255.275,167.673Z" transform="translate(-207.436 -152.257)" fill="#263238"/>
            <path id="Path_15166" data-name="Path 15166" d="M241.356,160.27a.191.191,0,0,0,.2-.023,2.471,2.471,0,0,1,2.214-.47.191.191,0,0,0,.126-.36,2.855,2.855,0,0,0-2.572.528.19.19,0,0,0-.035.267A.193.193,0,0,0,241.356,160.27Z" transform="translate(-200.862 -148.272)" fill="#263238"/>
            <g id="Group_10845" data-name="Group 10845" transform="translate(34.267 73.984)">
              <path id="Path_15167" data-name="Path 15167" d="M228.752,297.612a19.505,19.505,0,0,1,.972-6.244h25.632a28.142,28.142,0,0,1,2.9,6.244Z" transform="translate(-228.751 -289.671)" fill="#407bff"/>
              <path id="Path_15168" data-name="Path 15168" d="M255.924,288.094l.2,2.294c.09.178-.121.36-.417.36h-25.93c-.231,0-.422-.114-.437-.259l-.231-2.294c-.016-.159.184-.293.437-.293h25.956A.465.465,0,0,1,255.924,288.094Z" transform="translate(-228.935 -287.902)" fill="#407bff"/>
              <path id="Path_15169" data-name="Path 15169" d="M255.924,288.094l.2,2.294c.09.178-.121.36-.417.36h-25.93c-.231,0-.422-.114-.437-.259l-.231-2.294c-.016-.159.184-.293.437-.293h25.956A.465.465,0,0,1,255.924,288.094Z" transform="translate(-228.935 -287.902)" fill="#fafafa" opacity="0.3"/>
            </g>
            <path id="Path_15170" data-name="Path 15170" d="M276.143,290.785h.7c.139,0,.244-.071.234-.159l-.326-2.981c-.009-.088-.131-.159-.269-.159h-.7c-.138,0-.244.071-.234.159l.326,2.981C275.884,290.713,276,290.785,276.143,290.785Z" transform="translate(-218.374 -213.706)" fill="#407bff"/>
            <path id="Path_15171" data-name="Path 15171" d="M233.849,290.785h.7c.139,0,.244-.071.234-.159l-.326-2.981c-.009-.088-.131-.159-.269-.159h-.7c-.139,0-.244.071-.234.159l.326,2.981C233.589,290.713,233.71,290.785,233.849,290.785Z" transform="translate(-196.782 -213.706)" fill="#407bff"/>
            <path id="Path_15172" data-name="Path 15172" d="M255,290.785h.7c.139,0,.244-.071.234-.159l-.326-2.981c-.009-.088-.131-.159-.269-.159h-.7c-.139,0-.244.071-.234.159l.327,2.981C254.736,290.713,254.857,290.785,255,290.785Z" transform="translate(-207.578 -213.706)" fill="#407bff"/>
          </g>
          <g id="Group_10848" data-name="Group 10848" transform="translate(58.383 35.846)">
            <path id="Path_15173" data-name="Path 15173" d="M290.272,227.953c1.127,3.656,2.209,7.337,3.245,11.021l1.56,5.515.778,2.739.2.676.1.338.023.079,0,.019c0,.018,0,.013,0,.019l-.08-.121a1.959,1.959,0,0,0-.451-.46,2.408,2.408,0,0,0-1.311-.464,2.141,2.141,0,0,0-1.037.2c-.352.189-.318.235-.291.2a1.626,1.626,0,0,0,.228-.24,8.94,8.94,0,0,0,.633-.91c.434-.7.857-1.5,1.261-2.309.829-1.626,1.583-3.35,2.34-5.078s1.481-3.489,2.2-5.254c.744-1.754,1.437-3.544,2.161-5.3l3.125.933c-.81,3.818-1.761,7.565-2.927,11.3-.576,1.873-1.218,3.73-1.956,5.611-.383.938-.789,1.878-1.292,2.853a14.8,14.8,0,0,1-.9,1.528,7.859,7.859,0,0,1-.685.872,4.689,4.689,0,0,1-1.421,1.08,3.642,3.642,0,0,1-1.732.361,3.543,3.543,0,0,1-1.972-.719,4.029,4.029,0,0,1-.926-1,5.241,5.241,0,0,1-.414-.758c-.046-.106-.1-.22-.131-.316l-.09-.242-.128-.346-.256-.691c-.332-.918-.668-1.831-.979-2.747-.627-1.832-1.254-3.658-1.841-5.493q-1.8-5.5-3.355-11.057Z" transform="translate(-281.048 -219.16)" fill="#b65b52"/>
            <g id="Group_10847" data-name="Group 10847" transform="translate(0 1.419)">
              <path id="Path_15174" data-name="Path 15174" d="M285.05,213.03c2.568.781,6.5,10.86,6.5,10.86l-9.963,7.123s-4.48-8.618-3.4-11.937C279.309,215.619,282.12,212.139,285.05,213.03Z" transform="translate(-278.017 -212.888)" fill="#407bff"/>
              <path id="Path_15175" data-name="Path 15175" d="M285.05,213.03c2.568.781,6.5,10.86,6.5,10.86l-9.963,7.123s-4.48-8.618-3.4-11.937C279.309,215.619,282.12,212.139,285.05,213.03Z" transform="translate(-278.017 -212.888)" fill="#fff" opacity="0.5"/>
            </g>
            <path id="Path_15176" data-name="Path 15176" d="M319.278,225.773l-1.366-6.023,5.676,3s.071,4.052-2.219,5.331Z" transform="translate(-298.383 -214.972)" fill="#b55b52"/>
            <path id="Path_15177" data-name="Path 15177" d="M320.288,209.99l3.623,2.568-.322,5.205-5.676-3Z" transform="translate(-298.383 -209.99)" fill="#b55b52"/>
          </g>
        </g>
      </g>
    </g>
    <g id="Chat" transform="translate(48.953 68.285)">
      <g id="Group_10858" data-name="Group 10858" transform="translate(0 0)">
        <g id="Group_10852" data-name="Group 10852" transform="translate(0 32.257)">
          <path id="Path_15178" data-name="Path 15178" d="M107.349,148.086H147a5.477,5.477,0,0,1,5.515,5.874l-1.1,17.948a6.35,6.35,0,0,1-6.234,5.874h-4.592l1.876,6.161-8.972-6.161H105.531a5.476,5.476,0,0,1-5.514-5.874l1.1-17.948A6.349,6.349,0,0,1,107.349,148.086Z" transform="translate(-100.005 -148.086)" fill="#407bff"/>
          <g id="Group_10851" data-name="Group 10851" transform="translate(7.982 7.188)">
            <path id="Path_15179" data-name="Path 15179" d="M152.526,164.984H118.993a1.032,1.032,0,0,1-1.039-1.106h0a1.2,1.2,0,0,1,1.174-1.107h33.534a1.032,1.032,0,0,1,1.039,1.107h0A1.2,1.2,0,0,1,152.526,164.984Z" transform="translate(-117.149 -162.771)" fill="#fff"/>
            <path id="Path_15180" data-name="Path 15180" d="M132.26,178.372H118.173a1.032,1.032,0,0,1-1.039-1.107h0a1.2,1.2,0,0,1,1.174-1.106H132.4a1.032,1.032,0,0,1,1.039,1.106h0A1.2,1.2,0,0,1,132.26,178.372Z" transform="translate(-116.731 -169.606)" fill="#fff"/>
            <path id="Path_15181" data-name="Path 15181" d="M143.881,191.759H117.354a1.032,1.032,0,0,1-1.039-1.107h0a1.2,1.2,0,0,1,1.174-1.106h26.527a1.032,1.032,0,0,1,1.039,1.106h0A1.2,1.2,0,0,1,143.881,191.759Z" transform="translate(-116.313 -176.44)" fill="#fff"/>
            <path id="Path_15182" data-name="Path 15182" d="M162.241,178.372H156.7a1.032,1.032,0,0,1-1.039-1.107h0a1.2,1.2,0,0,1,1.174-1.106h5.542a1.031,1.031,0,0,1,1.039,1.106h0A1.2,1.2,0,0,1,162.241,178.372Z" transform="translate(-136.398 -169.606)" fill="#fff"/>
          </g>
        </g>
        <g id="Group_10857" data-name="Group 10857" transform="translate(35.221)">
          <g id="Group_10855" data-name="Group 10855">
            <g id="Group_10853" data-name="Group 10853">
              <path id="Path_15183" data-name="Path 15183" d="M199.288,82.188H177.672a4.941,4.941,0,0,0-4.851,4.57l-.855,13.966a4.261,4.261,0,0,0,4.29,4.57h3.573l-2.047,4.795,7.568-4.795h12.522a4.94,4.94,0,0,0,4.85-4.57l.855-13.966A4.261,4.261,0,0,0,199.288,82.188Z" transform="translate(-171.957 -82.188)" fill="#407bff"/>
            </g>
            <g id="Group_10854" data-name="Group 10854" opacity="0.5">
              <path id="Path_15184" data-name="Path 15184" d="M199.288,82.188H177.672a4.941,4.941,0,0,0-4.851,4.57l-.855,13.966a4.261,4.261,0,0,0,4.29,4.57h3.573l-2.047,4.795,7.568-4.795h12.522a4.94,4.94,0,0,0,4.85-4.57l.855-13.966A4.261,4.261,0,0,0,199.288,82.188Z" transform="translate(-171.957 -82.188)" fill="#fafafa"/>
            </g>
          </g>
          <g id="Group_10856" data-name="Group 10856" transform="translate(11.195 3.995)">
            <path id="Path_15185" data-name="Path 15185" d="M200.54,100.193a1.41,1.41,0,0,1-1.371,1.084h-1.276q.024-.545.031-.664a4.61,4.61,0,0,1,.53-2.021,6.749,6.749,0,0,1,1.734-1.783,13.307,13.307,0,0,0,1.536-1.3,1.841,1.841,0,0,0,.432-1.07,1.7,1.7,0,0,0-.564-1.392,2.4,2.4,0,0,0-1.713-.58,2.8,2.8,0,0,0-1.811.6,2.893,2.893,0,0,0-.734.915,1.438,1.438,0,0,1-1.422.795h0a1.246,1.246,0,0,1-.9-1.9,5.023,5.023,0,0,1,1.121-1.3,5.649,5.649,0,0,1,3.756-1.238,5.262,5.262,0,0,1,3.738,1.253,3.56,3.56,0,0,1,1.238,2.918,3.387,3.387,0,0,1-.627,1.744,12.548,12.548,0,0,1-2.361,2.239,4.648,4.648,0,0,0-1.167,1.179A1.958,1.958,0,0,0,200.54,100.193Zm-2.8,3.514.009-.154a1.417,1.417,0,0,1,1.4-1.315h.154a1.223,1.223,0,0,1,1.234,1.315l-.009.154a1.417,1.417,0,0,1-1.4,1.315h-.154A1.222,1.222,0,0,1,197.745,103.707Z" transform="translate(-194.828 -90.349)" fill="#fff"/>
          </g>
        </g>
      </g>
    </g>
  </g>
</svg>
