<svg xmlns="http://www.w3.org/2000/svg" width="236.842" height="176.499" viewBox="0 0 236.842 176.499">
  <g id="Group_10889" data-name="Group 10889" transform="translate(0 -54.953)">
    <g id="Background_Complete" data-name="Background Complete" transform="translate(0 54.953)">
      <g id="Group_10860" data-name="Group 10860">
        <rect id="Rectangle_1023" data-name="Rectangle 1023" width="236.842" height="0.118" transform="translate(0 155.106)" fill="#ebebeb"/>
        <rect id="Rectangle_1024" data-name="Rectangle 1024" width="15.689" height="0.118" transform="translate(24.849 159.617)" fill="#ebebeb"/>
        <rect id="Rectangle_1025" data-name="Rectangle 1025" width="26.249" height="0.118" transform="translate(81.066 158.331)" fill="#ebebeb"/>
        <rect id="Rectangle_1026" data-name="Rectangle 1026" width="9.091" height="0.118" transform="translate(43.105 162.43)" fill="#ebebeb"/>
        <rect id="Rectangle_1027" data-name="Rectangle 1027" width="20.46" height="0.118" transform="translate(182.586 159.558)" fill="#ebebeb"/>
        <rect id="Rectangle_1028" data-name="Rectangle 1028" width="3" height="0.118" transform="translate(207.263 159.558)" fill="#ebebeb"/>
        <rect id="Rectangle_1029" data-name="Rectangle 1029" width="22.186" height="0.118" transform="translate(131.311 161.22)" fill="#ebebeb"/>
        <path id="Path_15186" data-name="Path 15186" d="M132.379,188.933H40.911a2.707,2.707,0,0,1-2.7-2.7V57.656a2.707,2.707,0,0,1,2.7-2.7h91.468a2.707,2.707,0,0,1,2.7,2.7V186.229A2.707,2.707,0,0,1,132.379,188.933ZM40.911,55.071a2.588,2.588,0,0,0-2.585,2.585V186.229a2.588,2.588,0,0,0,2.585,2.585h91.468a2.588,2.588,0,0,0,2.585-2.585V57.656a2.588,2.588,0,0,0-2.585-2.585Z" transform="translate(-20.109 -54.953)" fill="#ebebeb"/>
        <path id="Path_15187" data-name="Path 15187" d="M348.676,188.933H257.208a2.707,2.707,0,0,1-2.7-2.7V57.656a2.706,2.706,0,0,1,2.7-2.7h91.467a2.707,2.707,0,0,1,2.7,2.7V186.229A2.707,2.707,0,0,1,348.676,188.933ZM257.208,55.071a2.588,2.588,0,0,0-2.585,2.585V186.229a2.588,2.588,0,0,0,2.585,2.585h91.467a2.588,2.588,0,0,0,2.586-2.585V57.656a2.588,2.588,0,0,0-2.586-2.585Z" transform="translate(-133.95 -54.953)" fill="#ebebeb"/>
      </g>
      <g id="Group_10869" data-name="Group 10869" transform="translate(28.393 5.958)">
        <g id="Group_10864" data-name="Group 10864" transform="translate(14.48)">
          <g id="Group_10862" data-name="Group 10862" transform="translate(1.994 0.993)">
            <rect id="Rectangle_1030" data-name="Rectangle 1030" width="91.448" height="65.649" transform="translate(4.767 2.257)" fill="#fafafa"/>
            <path id="Path_15188" data-name="Path 15188" d="M241.615,140.042l-23.26-65.649H200.9l23.26,65.649Z" transform="translate(-150.604 -72.136)" fill="#fff"/>
            <path id="Path_15189" data-name="Path 15189" d="M154.844,140.042l-23.26-65.649h-6.367l23.26,65.649Z" transform="translate(-110.771 -72.136)" fill="#fff"/>
            <g id="Group_10861" data-name="Group 10861">
              <path id="Path_15190" data-name="Path 15190" d="M95.126,69.628H195.3a.408.408,0,0,1,.406.406h0a.408.408,0,0,1-.406.406H95.126a.408.408,0,0,1-.406-.406h0A.408.408,0,0,1,95.126,69.628Z" transform="translate(-94.72 -69.628)" fill="#e0e0e0"/>
              <rect id="Rectangle_1031" data-name="Rectangle 1031" width="1.084" height="65.931" transform="translate(49.949 2.116)" fill="#f0f0f0"/>
              <rect id="Rectangle_1032" data-name="Rectangle 1032" width="0.542" height="65.931" transform="translate(49.407 2.116)" fill="#e0e0e0"/>
              <rect id="Rectangle_1033" data-name="Rectangle 1033" width="1.084" height="92.712" transform="translate(4.135 35.624) rotate(-90)" fill="#f0f0f0"/>
              <path id="Path_15191" data-name="Path 15191" d="M103.449,138.888h0V73.059h92.712v65.829h0v1.084H103.449Zm91.628,0V74.143H104.532v64.746Z" transform="translate(-99.314 -71.434)" fill="#f0f0f0"/>
              <rect id="Rectangle_1034" data-name="Rectangle 1034" width="0.542" height="66.913" transform="translate(3.593 1.625)" fill="#e0e0e0"/>
            </g>
          </g>
          <g id="Group_10863" data-name="Group 10863">
            <path id="Path_15192" data-name="Path 15192" d="M110.082,67.531v77.1H90.51l3.589-77.1Z" transform="translate(-90.51 -67.531)" fill="#ebebeb" opacity="0.5"/>
            <path id="Path_15193" data-name="Path 15193" d="M269.651,67.531v77.1h19.573l-3.589-77.1Z" transform="translate(-184.794 -67.531)" fill="#ebebeb" opacity="0.5"/>
          </g>
        </g>
        <g id="Group_10867" data-name="Group 10867" transform="translate(0 84.357)">
          <g id="Group_10866" data-name="Group 10866">
            <g id="Group_10865" data-name="Group 10865">
              <rect id="Rectangle_1035" data-name="Rectangle 1035" width="7.465" height="60.551" transform="translate(0.939 1.976)" fill="#f0f0f0"/>
              <rect id="Rectangle_1036" data-name="Rectangle 1036" width="82.244" height="2.264" transform="translate(2.373 62.527)" fill="#f0f0f0"/>
              <rect id="Rectangle_1037" data-name="Rectangle 1037" width="77.646" height="60.551" transform="translate(86.05 62.527) rotate(180)" fill="#f5f5f5"/>
              <rect id="Rectangle_1038" data-name="Rectangle 1038" width="7.63" height="1.976" fill="#f0f0f0"/>
              <rect id="Rectangle_1039" data-name="Rectangle 1039" width="79.36" height="1.976" transform="translate(86.989 1.976) rotate(180)" fill="#fafafa"/>
              <path id="Path_15194" data-name="Path 15194" d="M155.627,288.473H83.35V258.545h72.277Zm-71.776-.5h71.275V259.047H83.851Z" transform="translate(-72.262 -252.422)" fill="#e0e0e0"/>
              <path id="Path_15195" data-name="Path 15195" d="M155.627,347.383H83.35V328.052h72.277Zm-71.776-.5h71.275V328.553H83.851Z" transform="translate(-72.262 -289.004)" fill="#e0e0e0"/>
              <rect id="Rectangle_1040" data-name="Rectangle 1040" width="52.802" height="1.607" rx="0.804" transform="translate(20.826 6.374)" fill="#e0e0e0"/>
              <rect id="Rectangle_1041" data-name="Rectangle 1041" width="52.802" height="1.607" rx="0.804" transform="translate(20.826 39.298)" fill="#e0e0e0"/>
            </g>
          </g>
        </g>
        <g id="Group_10868" data-name="Group 10868" transform="translate(135.004 13.745)">
          <rect id="Rectangle_1042" data-name="Rectangle 1042" width="43.426" height="132.497" transform="translate(44.804 132.497) rotate(180)" fill="#f0f0f0"/>
          <rect id="Rectangle_1043" data-name="Rectangle 1043" width="1.378" height="132.497" transform="translate(0 0)" fill="#e0e0e0"/>
          <rect id="Rectangle_1044" data-name="Rectangle 1044" width="29.335" height="122.389" transform="translate(37.759 127.443) rotate(180)" fill="#fafafa"/>
        </g>
      </g>
    </g>
    <g id="Shadow" transform="translate(26.579 220.724)">
      <ellipse id="_Path_" data-name="&lt;Path&gt;" cx="91.842" cy="5.364" rx="91.842" ry="5.364" transform="translate(0 0)" fill="#f5f5f5"/>
    </g>
    <g id="Character" transform="translate(28.348 75.056)">
      <g id="Group_10876" data-name="Group 10876" transform="translate(0 0)">
        <path id="Path_15196" data-name="Path 15196" d="M140.833,396.011l3.709-1.407-2.271-8.963-3.709,1.407Z" transform="translate(-101.275 -249.102)" fill="#b55b52"/>
        <path id="Path_15197" data-name="Path 15197" d="M84.527,397.479h3.967l.594-9.186H85.121Z" transform="translate(-72.835 -250.498)" fill="#b55b52"/>
        <path id="Path_15198" data-name="Path 15198" d="M87.32,406.715H82.483a.325.325,0,0,0-.324.271l-.609,3.526a.617.617,0,0,0,.616.706c1.555-.027,2.686-.118,4.645-.118,1.206,0,4.848.125,6.513.125,1.628,0,1.8-1.646,1.111-1.8-3.089-.669-5.438-1.591-6.461-2.47A1.007,1.007,0,0,0,87.32,406.715Z" transform="translate(-71.265 -260.194)" fill="#263238"/>
        <path id="Path_15199" data-name="Path 15199" d="M146.038,402.506l-4.05,1.536a.347.347,0,0,0-.22.373l.518,3.574a.578.578,0,0,0,.784.458c1.451-.579,2.683-1.314,4.532-1.977a30.843,30.843,0,0,0,6.056-2.72c1.373-.875.795-2.531.147-2.271-2.948,1.183-3.671,1.572-6.764.977A1.839,1.839,0,0,0,146.038,402.506Z" transform="translate(-102.961 -257.423)" fill="#263238"/>
        <path id="Path_15200" data-name="Path 15200" d="M122.811,152.492c1.248,2.206,2.564,4.479,3.888,6.679s2.687,4.393,4.13,6.441c.35.519.738,1.014,1.087,1.494a1.31,1.31,0,0,0,.308.357,1.146,1.146,0,0,0,.72.113,4.976,4.976,0,0,0,1.325-.315,16.374,16.374,0,0,0,3.059-1.6c.511-.336,1.029-.682,1.537-1.05s1.019-.77,1.481-1.126l2.224,1.98a20.957,20.957,0,0,1-1.3,1.692c-.452.539-.923,1.069-1.435,1.568a18.637,18.637,0,0,1-1.629,1.455,13.847,13.847,0,0,1-1.909,1.3,9.578,9.578,0,0,1-2.408.98,6.47,6.47,0,0,1-3.2-.009,6.015,6.015,0,0,1-2.919-1.843c-.476-.551-.94-1.066-1.374-1.61a74.873,74.873,0,0,1-4.783-6.655c-1.465-2.286-2.818-4.573-4.1-7Z" transform="translate(-90.197 -126.392)" fill="#b65b52"/>
        <g id="Group_10870" data-name="Group 10870" transform="translate(25.474 23.172)">
          <path id="Path_15201" data-name="Path 15201" d="M113.728,149.422c-1.07,3.638,6.46,13.558,6.46,13.558l7.592-4.885a48.415,48.415,0,0,0-5.261-8.92C119.409,145.212,114.9,145.429,113.728,149.422Z" transform="translate(-113.624 -146.312)" fill="#407bff"/>
          <path id="Path_15202" data-name="Path 15202" d="M113.728,149.422c-1.07,3.638,6.46,13.558,6.46,13.558l7.592-4.885a48.415,48.415,0,0,0-5.261-8.92C119.409,145.212,114.9,145.429,113.728,149.422Z" transform="translate(-113.624 -146.312)" opacity="0.2"/>
        </g>
        <path id="Path_15203" data-name="Path 15203" d="M120.269,161.811c1.562.667,3.86,4.428,5.056,7.215L122.1,171.1a60.673,60.673,0,0,1-4.843-7.59C118.278,162.389,119.444,161.46,120.269,161.811Z" transform="translate(-90.063 -131.257)" opacity="0.2"/>
        <path id="Path_15204" data-name="Path 15204" d="M164.73,173.978l1.391-3.9,3.948,1.884s-.819,3.474-3.708,3.468Z" transform="translate(-115.048 -135.651)" fill="#b55b52"/>
        <path id="Path_15205" data-name="Path 15205" d="M171.18,164.667l1.67,1.846-1.236,2.6-3.948-1.884Z" transform="translate(-116.593 -132.8)" fill="#b55b52"/>
        <path id="Path_15206" data-name="Path 15206" d="M142.269,385.647l1.171,4.62-3.71,1.407-1.171-4.62Z" transform="translate(-101.273 -249.105)" opacity="0.2"/>
        <path id="Path_15207" data-name="Path 15207" d="M85.437,388.3H89.4l-.308,4.735H85.128Z" transform="translate(-73.152 -250.501)" opacity="0.2"/>
        <g id="Group_10871" data-name="Group 10871" transform="translate(7.897 22.578)">
          <path id="Path_15208" data-name="Path 15208" d="M76.517,147.152c4.273,15.067,3.573,31.055,3.84,34.3,3.109-.111,14.818-.553,21.2-.794,3.6-22.46-2.866-34.961-2.866-34.961s-1.36-.264-3.21-.454c-.581-.06-1.206-.112-1.858-.146-.36-.022-.726-.033-1.1-.041a78.559,78.559,0,0,0-9,.67c-.564.07-1.138.155-1.693.245-.515.088-1.021.181-1.5.277C78.183,146.682,76.517,147.152,76.517,147.152Z" transform="translate(-76.517 -145.056)" fill="#407bff"/>
          <path id="Path_15209" data-name="Path 15209" d="M76.517,147.152c4.273,15.067,3.573,31.055,3.84,34.3,3.109-.111,14.818-.553,21.2-.794,3.6-22.46-2.866-34.961-2.866-34.961s-1.36-.264-3.21-.454c-.581-.06-1.206-.112-1.858-.146-.36-.022-.726-.033-1.1-.041a78.559,78.559,0,0,0-9,.67c-.564.07-1.138.155-1.693.245-.515.088-1.021.181-1.5.277C78.183,146.682,76.517,147.152,76.517,147.152Z" transform="translate(-76.517 -145.056)" opacity="0.2"/>
        </g>
        <path id="Path_15210" data-name="Path 15210" d="M83.35,163.126c.381,1.458-.054,8.109-1.576,9.75-.207-2.13-.484-4.354-.85-6.627Z" transform="translate(-70.939 -131.989)" opacity="0.2"/>
        <path id="Path_15211" data-name="Path 15211" d="M91.468,124.956c.783,2.852,1.744,8.111-.137,10.193a10.109,10.109,0,0,0,7.325,2.965c3.445-.135,2.669-2.454,1.669-3.634-3.285-.531-3.379-2.931-2.985-5.221Z" transform="translate(-76.417 -111.9)" fill="#b55b52"/>
        <g id="Group_10872" data-name="Group 10872" transform="translate(13.316 22.232)">
          <path id="Path_15212" data-name="Path 15212" d="M105.139,151.7l.626.423-2.283.665.588-1.057Z" transform="translate(-96.127 -148.207)" fill="#407bff"/>
          <path id="Path_15213" data-name="Path 15213" d="M108.537,151.229l-.236.646,2.292.665-.155-1.227Z" transform="translate(-98.664 -147.959)" fill="#407bff"/>
          <path id="Path_15214" data-name="Path 15214" d="M88.184,145.406l.9-.453a.867.867,0,0,1,.907.077,18.008,18.008,0,0,0,6.975,3.069c-1.812.865-1.363,3.185-1.363,3.185s-5.756-1.9-7.6-5.335A.4.4,0,0,1,88.184,145.406Z" transform="translate(-87.956 -144.608)" fill="#fff"/>
          <path id="Path_15215" data-name="Path 15215" d="M110.525,144.528l-1.323-.2a.175.175,0,0,0-.169.275c.463.655,1.23,2.1-.234,2.992a5.029,5.029,0,0,1,2.376,2.981s2.359-2.546-.391-5.9A.419.419,0,0,0,110.525,144.528Z" transform="translate(-98.926 -144.327)" fill="#fff"/>
        </g>
        <path id="Path_15216" data-name="Path 15216" d="M96.619,128.663l3.475,2.545a9.261,9.261,0,0,0-.159,1.617c-1.246-.087-3.04-1.314-3.267-2.595A4.349,4.349,0,0,1,96.619,128.663Z" transform="translate(-79.173 -113.851)" opacity="0.2"/>
        <path id="Path_15217" data-name="Path 15217" d="M109.09,108.561a3.925,3.925,0,0,1-2.335,2.86l-1.065-6C108.083,103.738,109.313,106.626,109.09,108.561Z" transform="translate(-83.974 -101.352)" fill="#263238"/>
        <path id="Path_15218" data-name="Path 15218" d="M88.994,109.015c.69,3.876.9,6.179,3.1,7.956,3.313,2.672,7.925.329,8.407-3.674.434-3.6-.766-9.336-4.766-10.449A5.369,5.369,0,0,0,88.994,109.015Z" transform="translate(-75.14 -100.153)" fill="#b55b52"/>
        <path id="Path_15219" data-name="Path 15219" d="M86.591,108.868c1.795.954,2.586-1.19,2.6-2.059a4.76,4.76,0,0,0-1.29-3.459c3.465-.021,10.322-.171,8.593-3.473s-5.193-2.924-7.8-1.119c-1.38.954-5.842.124-4.735,2.7C81.629,102.691,83.647,107.3,86.591,108.868Z" transform="translate(-72.002 -97.392)" fill="#263238"/>
        <path id="Path_15220" data-name="Path 15220" d="M83.984,104.873a2.832,2.832,0,0,1-1.71-.582,1.622,1.622,0,0,0,1.514,1.255Z" transform="translate(-71.65 -101.023)" fill="#263238"/>
        <path id="Path_15221" data-name="Path 15221" d="M85.785,120.024a3.745,3.745,0,0,0,2.162,1.869c1.249.4,1.535-.741,1.232-1.947-.273-1.085-.861-2.563-2.135-2.441A1.681,1.681,0,0,0,85.785,120.024Z" transform="translate(-73.389 -107.974)" fill="#b55b52"/>
        <path id="Path_15222" data-name="Path 15222" d="M118.516,262.157c-1.612-12-4.619-41.933-4.619-41.933l-13.938.522s6.574,29.916,8.953,42.045,9,41.406,9,41.406l6.281-2.379S120.193,274.633,118.516,262.157Z" transform="translate(-80.958 -162.041)" fill="#263238"/>
        <path id="Path_15223" data-name="Path 15223" d="M107.5,238.354a7.337,7.337,0,0,0-3.1,1.586c1.314,6.049,3.034,14.01,4.512,21.027C109.924,254.889,109.954,243.419,107.5,238.354Z" transform="translate(-83.297 -171.583)" opacity="0.2"/>
        <path id="Path_15224" data-name="Path 15224" d="M96.887,220.819s-2.957,32.474-4.312,44.017c-1.483,12.641-3.336,39.133-3.336,39.133H81.974s-.3-23.431.643-35.8c1.076-14.094.589-46.831.589-46.831Z" transform="translate(-71.468 -162.354)" fill="#263238"/>
        <path id="Path_15225" data-name="Path 15225" d="M89.7,393.665H81.14l-.18-2.556,9.551-.166Z" transform="translate(-70.958 -251.893)" fill="#407bff"/>
        <path id="Path_15226" data-name="Path 15226" d="M143.56,388.956l-7.484,2.838-.917-2.418,8.317-3.3Z" transform="translate(-99.484 -249.331)" fill="#407bff"/>
        <path id="Path_15227" data-name="Path 15227" d="M101.849,116.275c.036.318.234.556.442.532s.346-.3.31-.619-.234-.556-.442-.532S101.812,115.957,101.849,116.275Z" transform="translate(-81.949 -107.004)" fill="#263238"/>
        <path id="Path_15228" data-name="Path 15228" d="M109.434,115.4c.036.318.234.556.442.532s.347-.3.31-.619-.234-.556-.442-.532S109.4,115.083,109.434,115.4Z" transform="translate(-85.941 -106.544)" fill="#263238"/>
        <path id="Path_15229" data-name="Path 15229" d="M107.067,116.7a11.451,11.451,0,0,0,1.832,2.543,1.844,1.844,0,0,1-1.485.46Z" transform="translate(-84.699 -107.555)" fill="#a02724"/>
        <path id="Path_15230" data-name="Path 15230" d="M103.024,124.065a2.637,2.637,0,0,1-1.916-.835.094.094,0,0,1,.145-.12,2.539,2.539,0,0,0,2.166.748.094.094,0,1,1,.021.187A3.018,3.018,0,0,1,103.024,124.065Z" transform="translate(-81.551 -110.91)" fill="#263238"/>
        <path id="Path_15231" data-name="Path 15231" d="M99.03,113.419a.188.188,0,0,1-.158-.283,1.863,1.863,0,0,1,1.431-.945.188.188,0,0,1,.018.375h0a1.49,1.49,0,0,0-1.125.761A.188.188,0,0,1,99.03,113.419Z" transform="translate(-80.372 -105.18)" fill="#263238"/>
        <path id="Path_15232" data-name="Path 15232" d="M110.752,111.788a.187.187,0,0,1-.155-.087,1.491,1.491,0,0,0-1.15-.723.188.188,0,0,1,0-.376,1.867,1.867,0,0,1,1.462.9.188.188,0,0,1-.162.289Z" transform="translate(-85.854 -104.345)" fill="#263238"/>
        <g id="Group_10873" data-name="Group 10873" transform="translate(16.279 143.383)">
          <path id="Path_15233" data-name="Path 15233" d="M95.335,407.062a4.778,4.778,0,0,1-1.045-.142.1.1,0,0,1-.075-.076.09.09,0,0,1,.038-.095c.14-.09,1.381-.876,1.83-.651a.319.319,0,0,1,.174.266.541.541,0,0,1-.17.5A1.157,1.157,0,0,1,95.335,407.062Zm-.779-.274a1.9,1.9,0,0,0,1.4-.072.367.367,0,0,0,.11-.341.121.121,0,0,0-.065-.11C95.772,406.147,95.06,406.487,94.555,406.787Z" transform="translate(-94.213 -403.23)" fill="#407bff"/>
          <path id="Path_15234" data-name="Path 15234" d="M94.311,405.888a.1.1,0,0,1-.1-.1c0-.048.039-1.193.482-1.569a.493.493,0,0,1,.394-.121h0a.326.326,0,0,1,.311.246c.106.442-.645,1.311-1.044,1.534A.091.091,0,0,1,94.311,405.888Zm.721-1.608a.317.317,0,0,0-.212.082,2.163,2.163,0,0,0-.407,1.242c.393-.31.866-.966.8-1.228-.006-.024-.019-.08-.142-.095h0A.322.322,0,0,0,95.032,404.28Z" transform="translate(-94.213 -402.196)" fill="#407bff"/>
          <path id="Path_15235" data-name="Path 15235" d="M151.86,402.743a.094.094,0,0,1-.072-.157c.135-.151,1.34-1.472,1.885-1.392a.3.3,0,0,1,.234.179h0a.526.526,0,0,1,0,.49c-.27.514-1.388.772-2.031.879Zm1.748-1.365c-.316.009-1.008.624-1.49,1.127.871-.174,1.467-.441,1.619-.73a.342.342,0,0,0,0-.323.112.112,0,0,0-.091-.073A.186.186,0,0,0,153.608,401.378Z" transform="translate(-124.503 -400.669)" fill="#407bff"/>
          <path id="Path_15236" data-name="Path 15236" d="M151.727,402.163a.084.084,0,0,1-.027,0,.094.094,0,0,1-.067-.066,2.683,2.683,0,0,1,.034-1.647.688.688,0,0,1,.43-.335h0c.251-.067.367.029.42.121.227.394-.356,1.532-.727,1.9A.1.1,0,0,1,151.727,402.163Zm.516-1.886a.415.415,0,0,0-.1.016h0a.5.5,0,0,0-.315.248,2.2,2.2,0,0,0-.056,1.329c.353-.448.717-1.307.58-1.543C152.347,400.312,152.325,400.275,152.243,400.277Zm-.121-.075h0Z" transform="translate(-124.37 -400.089)" fill="#407bff"/>
        </g>
        <g id="Group_10875" data-name="Group 10875" transform="translate(0 24.326)">
          <path id="Path_15237" data-name="Path 15237" d="M72.1,158.269c-1.19,2.451-2.4,4.982-3.578,7.472-.583,1.253-1.169,2.5-1.72,3.758l-.822,1.881-.393.941-.1.235-.069.175c-.049.112-.08.225-.122.338a5.742,5.742,0,0,0-.155,2.881A9.9,9.9,0,0,0,66.4,179.1a19.56,19.56,0,0,0,2.255,3.053c.431.492.882.974,1.357,1.437.237.231.478.459.724.679s.5.457.713.639l-1.58,2.524a19.475,19.475,0,0,1-1.986-1.162c-.63-.414-1.247-.853-1.845-1.326a20.414,20.414,0,0,1-3.31-3.295,13.866,13.866,0,0,1-2.393-4.435,10.656,10.656,0,0,1-.229-5.483c.057-.225.108-.455.178-.675l.182-.587.336-1.044c.233-.689.464-1.381.72-2.057.5-1.361,1.018-2.706,1.577-4.03,1.107-2.664,2.3-5.234,3.659-7.814Z" transform="translate(-59.845 -152.315)" fill="#b65b52"/>
          <g id="Group_10874" data-name="Group 10874" transform="translate(0.72)">
            <path id="Path_15238" data-name="Path 15238" d="M68.543,149.095c-3.619,1.134-7.178,13.4-7.178,13.4l8.374,3.665s2.709-5.93,4.266-10.577C75.7,150.525,72.927,147.722,68.543,149.095Z" transform="translate(-61.365 -148.747)" fill="#407bff"/>
            <path id="Path_15239" data-name="Path 15239" d="M68.543,149.095c-3.619,1.134-7.178,13.4-7.178,13.4l8.374,3.665s2.709-5.93,4.266-10.577C75.7,150.525,72.927,147.722,68.543,149.095Z" transform="translate(-61.365 -148.747)" opacity="0.2"/>
          </g>
          <path id="Path_15240" data-name="Path 15240" d="M80.107,215.915l3.463,2.059L80.2,221.327s-2.925-2.25-2.053-4.013Z" transform="translate(-69.393 -184.099)" fill="#b55b52"/>
          <path id="Path_15241" data-name="Path 15241" d="M88.344,223.544l-3.474,2.433-2.207-2.363,3.368-3.353Z" transform="translate(-71.854 -186.386)" fill="#b55b52"/>
        </g>
      </g>
    </g>
    <g id="Screen" transform="translate(76.715 97.582)">
      <g id="Group_10888" data-name="Group 10888">
        <g id="Group_10877" data-name="Group 10877">
          <rect id="Rectangle_1045" data-name="Rectangle 1045" width="2.289" height="0.474" transform="matrix(0.072, -0.997, 0.997, 0.072, 135.518, 35.016)" fill="#407bff"/>
          <rect id="Rectangle_1046" data-name="Rectangle 1046" width="6.637" height="0.474" transform="translate(135.825 30.714) rotate(-85.856)" fill="#407bff"/>
          <path id="Path_15242" data-name="Path 15242" d="M286.742,243.479H170.72a5.936,5.936,0,0,1-5.984-6.446l6.139-85.641a7.058,7.058,0,0,1,6.908-6.446H293.8a5.936,5.936,0,0,1,5.984,6.446l-6.138,85.641A7.058,7.058,0,0,1,286.742,243.479Z" transform="translate(-163.409 -144.947)" fill="#407bff"/>
          <path id="Path_15243" data-name="Path 15243" d="M316.046,364.531h-37.66L271.673,318h37.66Z" transform="translate(-219.701 -236.025)" fill="#407bff"/>
          <path id="Path_15244" data-name="Path 15244" d="M306.56,410.384H265.822l-.809,2.773h40.738Z" transform="translate(-216.196 -284.651)" fill="#407bff"/>
          <path id="Path_15245" data-name="Path 15245" d="M311.321,340.4l-36.706-2.006L271.673,318H308.09Z" transform="translate(-219.701 -236.025)" fill="#263238"/>
          <path id="Path_15246" data-name="Path 15246" d="M283.977,243.479H167.955a5.936,5.936,0,0,1-5.984-6.446l6.139-85.641a7.058,7.058,0,0,1,6.908-6.446H291.04a5.936,5.936,0,0,1,5.984,6.446l-6.138,85.641A7.058,7.058,0,0,1,283.977,243.479Z" transform="translate(-161.954 -144.947)" fill="#263238"/>
          <rect id="Rectangle_1047" data-name="Rectangle 1047" width="49.255" height="0.453" transform="matrix(0.072, -0.997, 0.997, 0.072, 131.26, 56.407)" fill="#fff"/>
          <rect id="Rectangle_1048" data-name="Rectangle 1048" width="17.055" height="0.453" transform="translate(129.736 77.686) rotate(-85.901)" fill="#fff"/>
        </g>
        <g id="Group_10887" data-name="Group 10887" transform="translate(1.325 1.603)">
          <g id="Group_10878" data-name="Group 10878" transform="translate(0.48)">
            <path id="Path_15247" data-name="Path 15247" d="M285.738,243.658h-115.3a4.62,4.62,0,0,1-4.658-5.017l6.114-85.292a5.493,5.493,0,0,1,5.377-5.017h115.3a4.621,4.621,0,0,1,4.658,5.017l-6.114,85.292A5.493,5.493,0,0,1,285.738,243.658Z" transform="translate(-165.765 -148.331)" fill="#fff"/>
            <path id="Path_15248" data-name="Path 15248" d="M285.738,243.658h-115.3a4.62,4.62,0,0,1-4.658-5.017l6.114-85.292a5.493,5.493,0,0,1,5.377-5.017h115.3a4.621,4.621,0,0,1,4.658,5.017l-6.114,85.292A5.493,5.493,0,0,1,285.738,243.658Z" transform="translate(-165.765 -148.331)" fill="#407bff" opacity="0.2"/>
            <path id="Path_15249" data-name="Path 15249" d="M205.636,244.078H178.708a2.232,2.232,0,0,1-2.25-2.424l5.943-82.918a2.654,2.654,0,0,1,2.6-2.424h26.928a2.232,2.232,0,0,1,2.25,2.424l-5.943,82.918A2.655,2.655,0,0,1,205.636,244.078Z" transform="translate(-171.389 -152.532)" fill="#fff" opacity="0.5"/>
          </g>
          <path id="Path_15250" data-name="Path 15250" d="M218.118,173.763H204.182a2.011,2.011,0,0,1-2.027-2.183l.153-2.137a2.39,2.39,0,0,1,2.34-2.183h13.936a2.01,2.01,0,0,1,2.027,2.183l-.153,2.137A2.391,2.391,0,0,1,218.118,173.763Z" transform="translate(-184.434 -158.293)" fill="#407bff" opacity="0.4"/>
          <g id="Group_10879" data-name="Group 10879" transform="translate(0 20.115)">
            <path id="Path_15251" data-name="Path 15251" d="M189.574,219.692H168.3a3.508,3.508,0,0,1-3.536-3.809l1.525-21.277a4.172,4.172,0,0,1,4.083-3.809h21.276a3.508,3.508,0,0,1,3.537,3.809l-1.525,21.277A4.171,4.171,0,0,1,189.574,219.692Z" transform="translate(-164.751 -190.796)" fill="#407bff"/>
            <path id="Path_15252" data-name="Path 15252" d="M221.616,214.971a1.59,1.59,0,0,0-1.556,1.452l-.221,3.089a1.337,1.337,0,0,0,1.348,1.452h2.16a.393.393,0,0,0,.386-.36l.378-5.273a.331.331,0,0,0-.334-.36Z" transform="translate(-193.743 -203.52)" fill="#fff"/>
            <path id="Path_15253" data-name="Path 15253" d="M190.76,200.934H177.349a.536.536,0,0,1-.54-.582h0a.638.638,0,0,1,.624-.582h13.411a.536.536,0,0,1,.54.582h0A.638.638,0,0,1,190.76,200.934Z" transform="translate(-171.096 -195.519)" fill="#fff"/>
            <path id="Path_15254" data-name="Path 15254" d="M190.312,207.189H176.9a.536.536,0,0,1-.54-.582h0a.637.637,0,0,1,.624-.582H190.4a.536.536,0,0,1,.54.582h0A.637.637,0,0,1,190.312,207.189Z" transform="translate(-170.861 -198.811)" fill="#fff"/>
            <path id="Path_15255" data-name="Path 15255" d="M185.229,213.444h-8.777a.536.536,0,0,1-.54-.582h0a.638.638,0,0,1,.624-.582h8.777a.536.536,0,0,1,.54.582h0A.638.638,0,0,1,185.229,213.444Z" transform="translate(-170.624 -202.103)" fill="#fff"/>
            <path id="Path_15256" data-name="Path 15256" d="M189.345,231.433H176.37a2.293,2.293,0,0,1-2.312-2.49l.488-6.817a2.727,2.727,0,0,1,2.669-2.49h12.975a2.293,2.293,0,0,1,2.312,2.49l-.489,6.817A2.726,2.726,0,0,1,189.345,231.433Z" transform="translate(-169.647 -205.975)" fill="#fff" opacity="0.5"/>
          </g>
          <g id="Group_10880" data-name="Group 10880" transform="translate(12.987 54.82)">
            <path id="Path_15257" data-name="Path 15257" d="M212.856,266.222H196.712a.994.994,0,0,1-1-1.08h0a1.182,1.182,0,0,1,1.157-1.08h16.144a1,1,0,0,1,1,1.08h0A1.182,1.182,0,0,1,212.856,266.222Z" transform="translate(-194.031 -264.063)" fill="#407bff" opacity="0.4"/>
            <path id="Path_15258" data-name="Path 15258" d="M212.543,275.168H202.3a1,1,0,0,1-1-1.08h0a1.182,1.182,0,0,1,1.157-1.08H212.7a1,1,0,0,1,1,1.08h0A1.182,1.182,0,0,1,212.543,275.168Z" transform="translate(-196.971 -268.771)" fill="#fff" opacity="0.8"/>
            <path id="Path_15259" data-name="Path 15259" d="M211.086,290.909H194.942a1,1,0,0,1-1-1.08h0a1.182,1.182,0,0,1,1.157-1.08h16.144a.994.994,0,0,1,1,1.08h0A1.182,1.182,0,0,1,211.086,290.909Z" transform="translate(-193.099 -277.056)" fill="#407bff" opacity="0.4"/>
            <path id="Path_15260" data-name="Path 15260" d="M210.774,299.855H200.529a.994.994,0,0,1-1-1.08h0a1.182,1.182,0,0,1,1.157-1.08h10.244a.994.994,0,0,1,1,1.08h0A1.182,1.182,0,0,1,210.774,299.855Z" transform="translate(-196.04 -281.765)" fill="#fff" opacity="0.8"/>
            <path id="Path_15261" data-name="Path 15261" d="M209.317,315.6H193.173a.994.994,0,0,1-1-1.08h0a1.182,1.182,0,0,1,1.157-1.08h16.144a1,1,0,0,1,1,1.08h0A1.182,1.182,0,0,1,209.317,315.6Z" transform="translate(-192.168 -290.049)" fill="#407bff" opacity="0.4"/>
            <path id="Path_15262" data-name="Path 15262" d="M209,324.543H198.759a.994.994,0,0,1-1-1.08h0a1.182,1.182,0,0,1,1.157-1.08h10.244a1,1,0,0,1,1,1.08h0A1.182,1.182,0,0,1,209,324.543Z" transform="translate(-195.108 -294.758)" fill="#fff" opacity="0.8"/>
          </g>
          <g id="Group_10882" data-name="Group 10882" transform="translate(40.81 55.017)">
            <path id="Path_15263" data-name="Path 15263" d="M331.8,283.662a1.181,1.181,0,0,1,2.216.62l-1.554,21.671a2.071,2.071,0,0,1-1.88,2.024H252.5a1.744,1.744,0,0,1-1.59-2.024l.923-12.876a2.794,2.794,0,0,1,3.516-2.481,15,15,0,0,0,11.676-1.171c7.5-3.721,13.767-11.707,22.384-11.707.33,0,.656.009.972.029,12.818.774,16.723,16.695,26.653,16.695a13.08,13.08,0,0,0,7.947-3.073A32.184,32.184,0,0,0,331.8,283.662Z" transform="translate(-250.905 -271.447)" fill="#407bff" opacity="0.5"/>
            <path id="Path_15264" data-name="Path 15264" d="M333.419,285.622l-.958,13.363a2.071,2.071,0,0,1-1.88,2.024H252.5a1.744,1.744,0,0,1-1.59-2.024l1.9-26.553a1.947,1.947,0,0,1,3.479-1.112c2.491,3.8,6.324,8.709,10.733,11.138a10.974,10.974,0,0,0,5.274,1.493c6.309,0,11.674-7.484,18.082-13.17,3.929-3.487,8.249-6.3,13.417-6.3,10.787,0,12.378,17.527,21.183,19.923a9.507,9.507,0,0,0,6.013-.535A1.749,1.749,0,0,1,333.419,285.622Z" transform="translate(-250.905 -264.479)" fill="#407bff" opacity="0.5"/>
            <g id="Group_10881" data-name="Group 10881" transform="translate(0.476 14.632)" opacity="0.8">
              <path id="Path_15265" data-name="Path 15265" d="M425.731,297.821a.174.174,0,0,1-.114-.047.118.118,0,0,1-.033-.052.147.147,0,0,1-.015-.062.155.155,0,0,1,.048-.114.158.158,0,0,1,.227,0,.146.146,0,0,1,.048.114.255.255,0,0,1-.01.062.189.189,0,0,1-.038.052A.163.163,0,0,1,425.731,297.821Z" transform="translate(-343.309 -296.49)" fill="#fff"/>
              <path id="Path_15266" data-name="Path 15266" d="M260.176,307.8a.159.159,0,0,1-.161-.161h0a.159.159,0,0,1,.161-.156v0a.162.162,0,0,1,.161.161h0a.163.163,0,0,1-.161.166h0Zm-1.625-.09h0a.158.158,0,0,1-.147-.175h0a.16.16,0,0,1,.18-.142h0a.16.16,0,0,1,.142.175h0a.164.164,0,0,1-.161.147h0A.035.035,0,0,1,258.551,307.709Zm3.065-.142a.161.161,0,0,1,.142-.18h0a.161.161,0,0,1,.18.142h0a.161.161,0,0,1-.142.18h-.019A.163.163,0,0,1,261.616,307.567Zm-4.666-.1a.17.17,0,0,1-.128-.194h0a.17.17,0,0,1,.194-.128h0a.171.171,0,0,1,.128.194h0a.166.166,0,0,1-.162.127h-.033Zm6.248-.161a.16.16,0,0,1,.118-.2h0a.165.165,0,0,1,.194.118h0a.167.167,0,0,1-.118.2h0v0h0a.118.118,0,0,1-.038,0h0A.154.154,0,0,1,263.2,307.3Zm51.807.066a.16.16,0,0,1-.161-.162h0a.163.163,0,0,1,.161-.161h0a.159.159,0,0,1,.161.161h0a.159.159,0,0,1-.161.162Zm1.445-.227a.157.157,0,0,1,.142-.175h0a.157.157,0,0,1,.18.142h0a.164.164,0,0,1-.147.18h-.014A.163.163,0,0,1,316.449,307.141Zm-3.065.128a.157.157,0,0,1-.137-.18h0a.161.161,0,0,1,.18-.142h0a.166.166,0,0,1,.142.18h0a.166.166,0,0,1-.161.147h0A.042.042,0,0,1,313.385,307.269Zm-58.007-.194a.164.164,0,0,1-.114-.2h0a.168.168,0,0,1,.2-.114h0a.166.166,0,0,1,.109.2h0a.158.158,0,0,1-.156.114h0A.129.129,0,0,1,255.377,307.074Zm62.664-.156a.156.156,0,0,1,.127-.189h0a.161.161,0,0,1,.19.128h0a.161.161,0,0,1-.128.189h0c-.009,0-.019,0-.028,0h0A.166.166,0,0,1,318.041,306.918Zm-6.248.057a.155.155,0,0,1-.118-.194h0a.161.161,0,0,1,.195-.118h0a.163.163,0,0,1,.118.194h0a.162.162,0,0,1-.156.123h0A.1.1,0,0,1,311.793,306.975Zm-47.06-.133a.158.158,0,0,1,.095-.209h0a.163.163,0,0,1,.208.091h0a.16.16,0,0,1-.094.208h0a.121.121,0,0,1-.057.015h0A.165.165,0,0,1,264.733,306.842Zm54.876-.279a.164.164,0,0,1,.114-.2h0a.164.164,0,0,1,.2.114h0a.163.163,0,0,1-.114.2h0a.126.126,0,0,1-.043.01h0A.163.163,0,0,1,319.608,306.563Zm-9.369-.057h0a.16.16,0,0,1-.1-.2h0a.166.166,0,0,1,.208-.1h0a.166.166,0,0,1,.1.208h0a.164.164,0,0,1-.156.1h0A.1.1,0,0,1,310.239,306.506Zm-44.034-.3a.162.162,0,0,1,.071-.218h0a.166.166,0,0,1,.217.076h0a.158.158,0,0,1-.071.213h0a.14.14,0,0,1-.076.019h0A.162.162,0,0,1,266.206,306.2Zm54.942-.114a.157.157,0,0,1,.1-.2l0,0a.165.165,0,0,1,.2.1h0a.164.164,0,0,1-.1.208h0a.2.2,0,0,1-.052.009h0A.163.163,0,0,1,321.148,306.089Zm-12.405-.2h0a.16.16,0,0,1-.081-.213h0a.165.165,0,0,1,.213-.081h0a.161.161,0,0,1,.081.218h0a.167.167,0,0,1-.147.095h0A.112.112,0,0,1,308.743,305.89Zm13.907-.369a.159.159,0,0,1,.09-.209h0a.153.153,0,0,1,.208.086h0a.159.159,0,0,1-.086.213h0a.137.137,0,0,1-.061.009h0A.165.165,0,0,1,322.65,305.521Zm-55.042-.095a.167.167,0,0,1,.052-.227h0a.161.161,0,0,1,.223.052h0a.162.162,0,0,1-.052.223h0a.142.142,0,0,1-.085.028h0A.171.171,0,0,1,267.608,305.426Zm39.69-.26h0a.164.164,0,0,1-.067-.223h0a.167.167,0,0,1,.223-.062h0a.161.161,0,0,1,.062.218h0a.166.166,0,0,1-.142.085h0A.232.232,0,0,1,307.3,305.166Zm16.825-.294a.16.16,0,0,1,.076-.214h0a.165.165,0,0,1,.218.076h0a.161.161,0,0,1-.081.213h0l0,0h0a.191.191,0,0,1-.071.014h0A.159.159,0,0,1,324.123,304.872Zm-55.18-.336a.166.166,0,0,1,.038-.227h0a.165.165,0,0,1,.228.033h0a.166.166,0,0,1-.038.227h0a.177.177,0,0,1-.095.033h0A.167.167,0,0,1,268.943,304.536Zm36.957-.18v0h0a.155.155,0,0,1-.052-.218h0a.152.152,0,0,1,.218-.057h0a.159.159,0,0,1,.057.223h0a.166.166,0,0,1-.137.081h0A.177.177,0,0,1,305.9,304.355Zm19.663-.2a.159.159,0,0,1,.066-.218h0a.164.164,0,0,1,.218.066h0a.165.165,0,0,1-.066.223h0a.222.222,0,0,1-.076.019h0A.161.161,0,0,1,325.563,304.152Zm-55.331-.587a.16.16,0,0,1,.024-.227h0a.163.163,0,0,1,.227.024h0a.169.169,0,0,1-.023.232h0a.171.171,0,0,1-.1.034h0A.144.144,0,0,1,270.232,303.564Zm34.3-.071v0h0a.16.16,0,0,1-.047-.223h0a.167.167,0,0,1,.227-.047h0a.166.166,0,0,1,.047.223h0a.159.159,0,0,1-.138.075h0A.2.2,0,0,1,304.536,303.493Zm22.433-.118a.162.162,0,0,1,.057-.223h0a.167.167,0,0,1,.223.057h0a.167.167,0,0,1-.057.223h0a.193.193,0,0,1-.085.024h0A.16.16,0,0,1,326.969,303.375ZM303.2,302.6a.166.166,0,0,1-.043-.228h0a.171.171,0,0,1,.227-.042h0a.17.17,0,0,1,.043.227h0a.167.167,0,0,1-.138.071h0A.167.167,0,0,1,303.2,302.6Zm25.148-.057a.169.169,0,0,1,.052-.228h0a.162.162,0,0,1,.223.053h0a.161.161,0,0,1-.052.222h0a.133.133,0,0,1-.085.029h0A.172.172,0,0,1,328.344,302.541Zm-56.866.009a.163.163,0,0,1,.019-.227h0a.169.169,0,0,1,.232.019h0a.159.159,0,0,1-.024.227h0a.139.139,0,0,1-.1.038h0A.166.166,0,0,1,271.478,302.55Zm58.215-.891a.165.165,0,0,1,.038-.227h0a.162.162,0,0,1,.228.043h0a.159.159,0,0,1-.043.222h0a.164.164,0,0,1-.09.029h0A.16.16,0,0,1,329.693,301.66Zm-27.829.038a.156.156,0,0,1-.042-.222h0a.16.16,0,0,1,.223-.047h0a.162.162,0,0,1,.043.227h0a.153.153,0,0,1-.133.071h0A.167.167,0,0,1,301.864,301.7Zm-29.151-.18a.156.156,0,0,1,.019-.227h0a.164.164,0,0,1,.228.019h0a.164.164,0,0,1-.019.227h0a.15.15,0,0,1-.1.038h0A.154.154,0,0,1,272.714,301.518Zm27.815-.711a.159.159,0,0,1-.048-.223h0a.158.158,0,0,1,.223-.048h0a.162.162,0,0,1,.047.223h0a.152.152,0,0,1-.133.071h0A.151.151,0,0,1,300.529,300.808Zm30.482-.076a.155.155,0,0,1,.033-.223h0a.164.164,0,0,1,.227.033h0a.165.165,0,0,1-.038.227h0a.168.168,0,0,1-.094.028h0A.146.146,0,0,1,331.01,300.732Zm-57.06-.242a.16.16,0,0,1,.024-.227h0a.163.163,0,0,1,.227.024h0a.158.158,0,0,1-.024.227h0a.141.141,0,0,1-.1.038h0A.156.156,0,0,1,273.951,300.49Zm25.228-.549a.161.161,0,0,1-.052-.223h0a.162.162,0,0,1,.223-.052h0a.162.162,0,0,1,.052.223h0a.165.165,0,0,1-.137.081h0A.145.145,0,0,1,299.178,299.941Zm33.12-.171a.16.16,0,0,1,.029-.227h0a.16.16,0,0,1,.227.028h0a.169.169,0,0,1-.028.227h0a.145.145,0,0,1-.095.033h0A.161.161,0,0,1,332.3,299.77ZM275.21,299.5a.165.165,0,0,1,.033-.227h0a.165.165,0,0,1,.227.033h0a.164.164,0,0,1-.034.227h0a.172.172,0,0,1-.094.034h0A.166.166,0,0,1,275.21,299.5Zm22.59-.374a.161.161,0,0,1-.056-.223h0a.157.157,0,0,1,.218-.056h0a.154.154,0,0,1,.062.218h0a.167.167,0,0,1-.142.085h0A.2.2,0,0,1,297.8,299.121Zm35.754-.355a.16.16,0,0,1,.024-.227h0a.16.16,0,0,1,.227.023h0a.164.164,0,0,1-.019.228h0a.188.188,0,0,1-.1.038h0A.159.159,0,0,1,333.554,298.766Zm-57.036-.208a.161.161,0,0,1,.042-.227h0a.167.167,0,0,1,.228.047h0a.161.161,0,0,1-.048.223h0a.157.157,0,0,1-.09.028h0A.164.164,0,0,1,276.518,298.558Zm19.876-.2a.161.161,0,0,1-.066-.218h0a.163.163,0,0,1,.218-.072h0a.175.175,0,0,1,.071.223h0a.173.173,0,0,1-.146.085h0A.149.149,0,0,1,296.394,298.359Zm38.392-.63a.164.164,0,0,1,.015-.227h0a.164.164,0,0,1,.227.014h0a.164.164,0,0,1-.019.228h0a.148.148,0,0,1-.1.043h0A.161.161,0,0,1,334.785,297.729Zm-56.908-.028a.161.161,0,0,1,.062-.223h0a.162.162,0,0,1,.218.062h0a.163.163,0,0,1-.062.223h0a.179.179,0,0,1-.08.019h0A.161.161,0,0,1,277.877,297.7Zm17.076-.029h0a.161.161,0,0,1-.081-.213h0a.16.16,0,0,1,.213-.081h0a.159.159,0,0,1,.081.214h0a.162.162,0,0,1-.147.095h0A.157.157,0,0,1,294.954,297.671Zm-1.478-.6a.158.158,0,0,1-.095-.208h0a.166.166,0,0,1,.208-.1h0a.168.168,0,0,1,.095.209h0a.158.158,0,0,1-.152.1h0A.125.125,0,0,1,293.476,297.07Zm-14.177-.114a.164.164,0,0,1,.081-.213h0a.163.163,0,0,1,.218.081h0a.163.163,0,0,1-.085.213h0a.152.152,0,0,1-.067.014h0A.158.158,0,0,1,279.3,296.957Zm12.662-.384a.166.166,0,0,1-.109-.2h0a.166.166,0,0,1,.2-.108h0a.164.164,0,0,1,.109.2h0a.169.169,0,0,1-.156.114h0A.177.177,0,0,1,291.96,296.573Zm-11.175-.223a.162.162,0,0,1,.1-.2h0a.161.161,0,0,1,.2.1h0a.162.162,0,0,1-.1.2h0a.17.17,0,0,1-.052.009h0A.161.161,0,0,1,280.785,296.35Zm9.63-.171a.161.161,0,0,1-.123-.189h0a.157.157,0,0,1,.194-.123h0a.156.156,0,0,1,.123.189h0a.164.164,0,0,1-.161.128h0A.1.1,0,0,1,290.415,296.18Zm-8.091-.27a.163.163,0,0,1,.128-.194h0a.16.16,0,0,1,.189.123h0a.16.16,0,0,1-.123.195h0c-.009,0-.024,0-.033,0h0A.167.167,0,0,1,282.325,295.91Zm6.523,0h0a.165.165,0,0,1-.137-.185h0a.157.157,0,0,1,.18-.137h0a.166.166,0,0,1,.137.185h0a.167.167,0,0,1-.161.137h-.024Zm-4.941-.27a.159.159,0,0,1,.142-.175h0a.158.158,0,0,1,.18.142h0a.168.168,0,0,1-.147.18h-.014A.164.164,0,0,1,283.907,295.635Zm3.353.1h.005a.157.157,0,0,1-.152-.17h0a.16.16,0,0,1,.171-.152h0a.164.164,0,0,1,.152.175h0a.161.161,0,0,1-.161.152h0S287.266,295.739,287.261,295.739Zm-1.752-.208a.157.157,0,0,1,.161-.161h0a.159.159,0,0,1,.161.161h0a.16.16,0,0,1-.161.161h0A.16.16,0,0,1,285.508,295.531Z" transform="translate(-253.672 -295.369)" fill="#fff"/>
              <path id="Path_15267" data-name="Path 15267" d="M252.071,318.647a.14.14,0,0,1-.062-.015.125.125,0,0,1-.052-.038.094.094,0,0,1-.033-.052.131.131,0,0,1-.014-.062.174.174,0,0,1,.047-.114.118.118,0,0,1,.052-.033.14.14,0,0,1,.123,0,.1.1,0,0,1,.052.033.153.153,0,0,1,.047.114.125.125,0,0,1-.01.062.1.1,0,0,1-.037.052.163.163,0,0,1-.114.053Z" transform="translate(-251.91 -307.449)" fill="#fff"/>
            </g>
          </g>
          <g id="Group_10885" data-name="Group 10885" transform="translate(46.285 10.642)">
            <g id="Group_10883" data-name="Group 10883" transform="translate(0 0.026)">
              <path id="Path_15268" data-name="Path 15268" d="M283.867,210.24h0l-1.107-1.191a10.845,10.845,0,0,1-7.372,2.964,9.264,9.264,0,0,1-9.243-7.5l-1.658.436h0l-1.516.4A12.238,12.238,0,0,0,266,211.328c4.808,5.179,13.33,5.179,18.88,0Z" transform="translate(-262.731 -188.566)" fill="#fff"/>
              <path id="Path_15269" data-name="Path 15269" d="M308.219,179.047l-1.448,1.35h0l-1,.933a9.422,9.422,0,0,1,2.455,7.156,10.9,10.9,0,0,1-3.478,7.16l.866.933h0l1.251,1.347a14.413,14.413,0,0,0,4.587-9.44A12.485,12.485,0,0,0,308.219,179.047Z" transform="translate(-284.719 -175.165)" fill="#263238"/>
              <path id="Path_15270" data-name="Path 15270" d="M285.964,174.734c-4.808-5.175-13.33-5.175-18.88,0a14.124,14.124,0,0,0-4.38,12.9l1.875-.493h0l1.3-.342a10.045,10.045,0,0,1-.152-2.621,11.05,11.05,0,0,1,10.846-10.121,9.374,9.374,0,0,1,6.944,2.964l1.281-1.2h0Z" transform="translate(-262.464 -170.853)" fill="#407bff"/>
            </g>
            <g id="Group_10884" data-name="Group 10884" transform="translate(32.696)">
              <path id="Path_15271" data-name="Path 15271" d="M335.9,193h0l1.277-1.192a9.432,9.432,0,0,1-2.451-7.16,11.1,11.1,0,0,1,8.2-9.781l-.319-1.628h0l-.292-1.487a14.623,14.623,0,0,0-6.232,3.455c-5.551,5.179-6.161,13.7-1.353,18.88Z" transform="translate(-331.488 -171.3)" fill="#fff"/>
              <path id="Path_15272" data-name="Path 15272" d="M357.214,216.368l-1.254-1.35h0l-.866-.933a10.834,10.834,0,0,1-7.369,2.968,9.381,9.381,0,0,1-6.948-2.964l-1,.933h0l-1.443,1.347a12.41,12.41,0,0,0,9.16,3.911A14.347,14.347,0,0,0,357.214,216.368Z" transform="translate(-335.091 -193.58)" fill="#263238"/>
              <path id="Path_15273" data-name="Path 15273" d="M365.643,193.585c5.546-5.179,6.157-13.7,1.353-18.88a12.732,12.732,0,0,0-12.648-3.455l.361,1.84h0l.25,1.275a10.521,10.521,0,0,1,2.645-.34,9.3,9.3,0,0,1,9.4,10.121,10.891,10.891,0,0,1-3.477,7.156l1.109,1.2h0Z" transform="translate(-343.52 -170.797)" fill="#407bff"/>
            </g>
          </g>
          <path id="Path_15274" data-name="Path 15274" d="M413.947,172.841a.93.93,0,0,1,.941,1.015l-.585,8.171a1.19,1.19,0,0,1-1.151,1.075h-8.171a.929.929,0,0,1-.941-1.015l.585-8.17a1.19,1.19,0,0,1,1.151-1.075h8.171m0-.418h-8.171a1.6,1.6,0,0,0-1.567,1.463l-.586,8.171a1.347,1.347,0,0,0,1.358,1.463h8.171a1.6,1.6,0,0,0,1.568-1.463l.585-8.171a1.347,1.347,0,0,0-1.358-1.463Z" transform="translate(-290.472 -161.011)" fill="#407bff" opacity="0.3"/>
          <path id="Path_15275" data-name="Path 15275" d="M411.82,202.521a.929.929,0,0,1,.941,1.015l-.585,8.171a1.189,1.189,0,0,1-1.151,1.075h-8.171a.928.928,0,0,1-.941-1.015l.585-8.17a1.189,1.189,0,0,1,1.151-1.075h8.171m0-.418h-8.171a1.6,1.6,0,0,0-1.567,1.463l-.586,8.171a1.347,1.347,0,0,0,1.358,1.463h8.171a1.6,1.6,0,0,0,1.567-1.463l.586-8.171a1.347,1.347,0,0,0-1.358-1.463Z" transform="translate(-289.352 -176.632)" fill="#407bff" opacity="0.3"/>
          <path id="Path_15276" data-name="Path 15276" d="M396.489,297.964a.777.777,0,0,1,.791.853,1,1,0,0,1-.977.913.777.777,0,0,1-.791-.853,1,1,0,0,1,.977-.912m0-.418a1.421,1.421,0,0,0-1.394,1.3,1.2,1.2,0,0,0,1.208,1.3,1.419,1.419,0,0,0,1.394-1.3,1.2,1.2,0,0,0-1.207-1.3Z" transform="translate(-285.983 -226.865)" fill="#407bff"/>
          <g id="Group_10886" data-name="Group 10886" transform="translate(110.402 50.165)">
            <path id="Path_15277" data-name="Path 15277" d="M398.03,297.082l-.208-.015.03-.417.208.015Z" transform="translate(-397.822 -276.559)" fill="#407bff"/>
            <path id="Path_15278" data-name="Path 15278" d="M398.223,274.9l-.208-.015.062-.855.208.015Zm.123-1.71-.208-.015.062-.855.208.015Zm.123-1.711-.208-.015.062-.855.208.015Zm.122-1.71-.208-.015.062-.856.208.015Zm.123-1.711-.208-.015.062-.855.208.015Zm.123-1.711-.208-.015.061-.855.208.015Zm.123-1.711-.208-.015.061-.855.208.015Zm.123-1.71-.208-.015.061-.855.208.015Zm.122-1.711L399,261.2l.062-.855.208.015Zm.123-1.711-.208-.015.062-.856.208.015Zm.123-1.711-.208-.015.061-.855.208.015Z" transform="translate(-397.924 -255.648)" fill="#407bff"/>
            <rect id="Rectangle_1049" data-name="Rectangle 1049" width="0.418" height="0.209" transform="translate(1.44 0.417) rotate(-85.938)" fill="#407bff"/>
          </g>
          <path id="Path_15279" data-name="Path 15279" d="M334.79,245.475H259.783a1.475,1.475,0,0,1-1.483-1.6l.37-5.164a1.711,1.711,0,0,1,1.678-1.566h75.007a1.474,1.474,0,0,1,1.483,1.6l-.37,5.164A1.712,1.712,0,0,1,334.79,245.475ZM260.348,237.6a1.251,1.251,0,0,0-1.226,1.145l-.37,5.164a1.021,1.021,0,0,0,1.032,1.112H334.79a1.251,1.251,0,0,0,1.227-1.145l.37-5.164a1.022,1.022,0,0,0-1.032-1.113Z" transform="translate(-213.985 -195.076)" fill="#407bff"/>
          <path id="Path_15280" data-name="Path 15280" d="M336.656,242.614h-71.1a.647.647,0,0,1-.652-.7h0a.769.769,0,0,1,.753-.7h71.1a.647.647,0,0,1,.652.7h0A.769.769,0,0,1,336.656,242.614Z" transform="translate(-217.461 -197.214)" fill="#fff" fill-rule="evenodd" opacity="0.8"/>
          <path id="Path_15281" data-name="Path 15281" d="M324.57,248.869H265.105a.648.648,0,0,1-.652-.7h0a.77.77,0,0,1,.753-.7h59.465a.648.648,0,0,1,.652.7h0A.77.77,0,0,1,324.57,248.869Z" transform="translate(-217.225 -200.506)" fill="#fff" fill-rule="evenodd" opacity="0.8"/>
        </g>
      </g>
    </g>
  </g>
</svg>
