<svg xmlns="http://www.w3.org/2000/svg" width="37.167" height="38.715" viewBox="0 0 37.167 38.715">
  <path id="Icon_material-add-shopping-cart" data-name="Icon material-add-shopping-cart" d="M19.936,16.249h3.687V10.718h5.531V7.031H23.623V1.5H19.936V7.031H14.405v3.687h5.531ZM12.562,32.841a3.687,3.687,0,1,0,3.687,3.687A3.682,3.682,0,0,0,12.562,32.841Zm18.436,0a3.687,3.687,0,1,0,3.687,3.687A3.682,3.682,0,0,0,31,32.841ZM12.875,26.849l.055-.221,1.659-3.005H28.324a3.67,3.67,0,0,0,3.226-1.9L38.667,8.8l-3.208-1.77H35.44l-2.028,3.687-5.088,9.218H15.382l-.24-.5-4.13-8.72L9.261,7.031,7.529,3.344H1.5V7.031H5.187l6.637,13.993L9.335,25.54a3.564,3.564,0,0,0-.461,1.77A3.7,3.7,0,0,0,12.562,31H34.685V27.31H13.336A.468.468,0,0,1,12.875,26.849Z" transform="translate(-1.5 -1.5)" fill="#0c6096"/>
</svg>
